M48
;GenerationSoftware,Autodesk,EAGLE,9.7.0*%
;CreationDate,2026-07-04T21:31:11Z*%
FMAT,2
ICI,OFF
METRIC,TZ,000.000
T3C0.350
T2C0.381
T1C1.016
%
G90
M71
T1
X36430Y28766
X41510Y28766
X38970Y28766
X33890Y28766
X36540Y23940
X36540Y21400
X51670Y28766
X44050Y28766
X46590Y28766
X49130Y28766
T2
X38130Y49370
X39430Y49370
X39430Y48070
X39430Y45470
X40730Y45470
X40730Y46770
X42030Y45470
X43330Y45470
X36830Y45470
X35530Y45470
X34230Y45470
X34230Y46770
X34230Y48070
X34230Y49370
X39430Y46770
X35530Y48070
X35530Y46770
X36830Y46770
X36830Y48070
X36830Y49370
X40730Y49370
X40730Y48070
X42030Y48070
X42030Y46770
X43330Y46770
X42030Y49370
X43330Y49370
X35530Y49370
X38130Y46770
X38130Y45470
X38130Y48070
X43330Y48070
T3
X31242Y34595
X37795Y53950
X25146Y41300
X36576Y52578
X25146Y31242
X34442Y52730
M30