G04 EAGLE Gerber RS-274X export*
G75*
%MOMM*%
%FSLAX34Y34*%
%LPD*%
%INBottom Copper*%
%IPPOS*%
%AMOC8*
5,1,8,0,0,1.08239X$1,22.5*%
G01*
G04 Define Apertures*
%ADD10C,1.581000*%
%ADD11P,1.64956X8X292.5*%
%ADD12P,1.64956X8X202.5*%
%ADD13C,0.152400*%
G36*
X-116428Y92208D02*
X-118232Y92208D01*
X-118232Y97459D01*
X-123434Y97459D01*
X-123434Y99250D01*
X-118232Y99250D01*
X-118232Y104501D01*
X-116428Y104501D01*
X-116428Y99250D01*
X-111227Y99250D01*
X-111227Y97459D01*
X-116428Y97459D01*
X-116428Y92208D01*
G37*
D10*
X0Y187300D03*
X0Y212700D03*
X162201Y93650D03*
X184199Y106350D03*
X162201Y-93650D03*
X184199Y-106350D03*
X0Y-187300D03*
X0Y-212700D03*
X-162201Y-93650D03*
X-184199Y-106350D03*
X-162201Y93650D03*
X-184199Y106350D03*
D11*
X-121300Y62600D03*
X-121300Y37200D03*
X-121300Y11800D03*
D12*
X-121300Y-13600D03*
D11*
X-121300Y-39000D03*
X-121300Y-64400D03*
X-121300Y-89800D03*
X-121300Y-115200D03*
D13*
X-121920Y-88392D02*
X-121920Y-79248D01*
X-182880Y-18288D01*
X-182880Y105156D01*
X-121920Y-88392D02*
X-121300Y-89800D01*
X-182880Y105156D02*
X-184199Y106350D01*
X-70104Y-185928D02*
X0Y-185928D01*
X-70104Y-185928D02*
X-161544Y-94488D01*
X-162201Y-93650D01*
X91440Y-94488D02*
X161544Y-94488D01*
X91440Y-94488D02*
X0Y-185928D01*
X161544Y-94488D02*
X162201Y-93650D01*
X0Y-185928D02*
X0Y-187300D01*
X-121300Y62600D02*
X-121300Y63614D01*
X0Y184914D01*
X0Y187300D01*
M02*
