G04 EAGLE Gerber RS-274X export*
G75*
%MOMM*%
%FSLAX34Y34*%
%LPD*%
%IN*%
%IPPOS*%
%AMOC8*
5,1,8,0,0,1.08239X$1,22.5*%
G01*
G04 Define Apertures*
%ADD10C,0.254000*%
D10*
X250000Y-3068D02*
X250000Y3068D01*
X249849Y9203D01*
X249548Y15331D01*
X249097Y21451D01*
X248495Y27558D01*
X247744Y33648D01*
X246844Y39718D01*
X245795Y45763D01*
X244598Y51782D01*
X243253Y57769D01*
X241762Y63721D01*
X240126Y69635D01*
X238344Y75507D01*
X236420Y81334D01*
X234352Y87111D01*
X232144Y92836D01*
X229796Y98505D01*
X227309Y104115D01*
X224686Y109662D01*
X221927Y115143D01*
X219034Y120555D01*
X216009Y125894D01*
X212855Y131157D01*
X209572Y136342D01*
X206163Y141444D01*
X202630Y146461D01*
X198974Y151389D01*
X195199Y156227D01*
X191306Y160970D01*
X187298Y165616D01*
X183177Y170163D01*
X178946Y174607D01*
X174607Y178946D01*
X170163Y183177D01*
X165616Y187298D01*
X160970Y191306D01*
X156227Y195199D01*
X151389Y198974D01*
X146461Y202630D01*
X141444Y206163D01*
X136342Y209572D01*
X131157Y212855D01*
X125894Y216009D01*
X120555Y219034D01*
X115143Y221927D01*
X109662Y224686D01*
X104115Y227309D01*
X98505Y229796D01*
X92836Y232144D01*
X87111Y234352D01*
X81334Y236420D01*
X75507Y238344D01*
X69635Y240126D01*
X63721Y241762D01*
X57769Y243253D01*
X51782Y244598D01*
X45763Y245795D01*
X39718Y246844D01*
X33648Y247744D01*
X27558Y248495D01*
X21451Y249097D01*
X15331Y249548D01*
X9203Y249849D01*
X3068Y250000D01*
X-3068Y250000D01*
X-9203Y249849D01*
X-15331Y249548D01*
X-21451Y249097D01*
X-27558Y248495D01*
X-33648Y247744D01*
X-39718Y246844D01*
X-45763Y245795D01*
X-51782Y244598D01*
X-57769Y243253D01*
X-63721Y241762D01*
X-69635Y240126D01*
X-75507Y238344D01*
X-81334Y236420D01*
X-87111Y234352D01*
X-92836Y232144D01*
X-98505Y229796D01*
X-104115Y227309D01*
X-109662Y224686D01*
X-115143Y221927D01*
X-120555Y219034D01*
X-125894Y216009D01*
X-131157Y212855D01*
X-136342Y209572D01*
X-141444Y206163D01*
X-146461Y202630D01*
X-151389Y198974D01*
X-156227Y195199D01*
X-160970Y191306D01*
X-165616Y187298D01*
X-170163Y183177D01*
X-174607Y178946D01*
X-178946Y174607D01*
X-183177Y170163D01*
X-187298Y165616D01*
X-191306Y160970D01*
X-195199Y156227D01*
X-198974Y151389D01*
X-202630Y146461D01*
X-206163Y141444D01*
X-209572Y136342D01*
X-212855Y131157D01*
X-216009Y125894D01*
X-219034Y120555D01*
X-221927Y115143D01*
X-224686Y109662D01*
X-227309Y104115D01*
X-229796Y98505D01*
X-232144Y92836D01*
X-234352Y87111D01*
X-236420Y81334D01*
X-238344Y75507D01*
X-240126Y69635D01*
X-241762Y63721D01*
X-243253Y57769D01*
X-244598Y51782D01*
X-245795Y45763D01*
X-246844Y39718D01*
X-247744Y33648D01*
X-248495Y27558D01*
X-249097Y21451D01*
X-249548Y15331D01*
X-249849Y9203D01*
X-250000Y3068D01*
X-250000Y-3068D01*
X-249849Y-9203D01*
X-249548Y-15331D01*
X-249097Y-21451D01*
X-248495Y-27558D01*
X-247744Y-33648D01*
X-246844Y-39718D01*
X-245795Y-45763D01*
X-244598Y-51782D01*
X-243253Y-57769D01*
X-241762Y-63721D01*
X-240126Y-69635D01*
X-238344Y-75507D01*
X-236420Y-81334D01*
X-234352Y-87111D01*
X-232144Y-92836D01*
X-229796Y-98505D01*
X-227309Y-104115D01*
X-224686Y-109662D01*
X-221927Y-115143D01*
X-219034Y-120555D01*
X-216009Y-125894D01*
X-212855Y-131157D01*
X-209572Y-136342D01*
X-206163Y-141444D01*
X-202630Y-146461D01*
X-198974Y-151389D01*
X-195199Y-156227D01*
X-191306Y-160970D01*
X-187298Y-165616D01*
X-183177Y-170163D01*
X-178946Y-174607D01*
X-174607Y-178946D01*
X-170163Y-183177D01*
X-165616Y-187298D01*
X-160970Y-191306D01*
X-156227Y-195199D01*
X-151389Y-198974D01*
X-146461Y-202630D01*
X-141444Y-206163D01*
X-136342Y-209572D01*
X-131157Y-212855D01*
X-125894Y-216009D01*
X-120555Y-219034D01*
X-115143Y-221927D01*
X-109662Y-224686D01*
X-104115Y-227309D01*
X-98505Y-229796D01*
X-92836Y-232144D01*
X-87111Y-234352D01*
X-81334Y-236420D01*
X-75507Y-238344D01*
X-69635Y-240126D01*
X-63721Y-241762D01*
X-57769Y-243253D01*
X-51782Y-244598D01*
X-45763Y-245795D01*
X-39718Y-246844D01*
X-33648Y-247744D01*
X-27558Y-248495D01*
X-21451Y-249097D01*
X-15331Y-249548D01*
X-9203Y-249849D01*
X-3068Y-250000D01*
X3068Y-250000D01*
X9203Y-249849D01*
X15331Y-249548D01*
X21451Y-249097D01*
X27558Y-248495D01*
X33648Y-247744D01*
X39718Y-246844D01*
X45763Y-245795D01*
X51782Y-244598D01*
X57769Y-243253D01*
X63721Y-241762D01*
X69635Y-240126D01*
X75507Y-238344D01*
X81334Y-236420D01*
X87111Y-234352D01*
X92836Y-232144D01*
X98505Y-229796D01*
X104115Y-227309D01*
X109662Y-224686D01*
X115143Y-221927D01*
X120555Y-219034D01*
X125894Y-216009D01*
X131157Y-212855D01*
X136342Y-209572D01*
X141444Y-206163D01*
X146461Y-202630D01*
X151389Y-198974D01*
X156227Y-195199D01*
X160970Y-191306D01*
X165616Y-187298D01*
X170163Y-183177D01*
X174607Y-178946D01*
X178946Y-174607D01*
X183177Y-170163D01*
X187298Y-165616D01*
X191306Y-160970D01*
X195199Y-156227D01*
X198974Y-151389D01*
X202630Y-146461D01*
X206163Y-141444D01*
X209572Y-136342D01*
X212855Y-131157D01*
X216009Y-125894D01*
X219034Y-120555D01*
X221927Y-115143D01*
X224686Y-109662D01*
X227309Y-104115D01*
X229796Y-98505D01*
X232144Y-92836D01*
X234352Y-87111D01*
X236420Y-81334D01*
X238344Y-75507D01*
X240126Y-69635D01*
X241762Y-63721D01*
X243253Y-57769D01*
X244598Y-51782D01*
X245795Y-45763D01*
X246844Y-39718D01*
X247744Y-33648D01*
X248495Y-27558D01*
X249097Y-21451D01*
X249548Y-15331D01*
X249849Y-9203D01*
X250000Y-3068D01*
X100000Y-1403D02*
X100000Y1403D01*
X99921Y4207D01*
X99764Y7007D01*
X99528Y9803D01*
X99214Y12590D01*
X98822Y15368D01*
X98352Y18133D01*
X97805Y20885D01*
X97181Y23620D01*
X96480Y26336D01*
X95703Y29031D01*
X94852Y31704D01*
X93925Y34352D01*
X92925Y36973D01*
X91851Y39564D01*
X90705Y42125D01*
X89488Y44652D01*
X88201Y47144D01*
X86844Y49599D01*
X85419Y52016D01*
X83926Y54391D01*
X82368Y56723D01*
X80744Y59011D01*
X79058Y61252D01*
X77309Y63446D01*
X75499Y65589D01*
X73630Y67681D01*
X71702Y69719D01*
X69719Y71702D01*
X67681Y73630D01*
X65589Y75499D01*
X63446Y77309D01*
X61252Y79058D01*
X59011Y80744D01*
X56723Y82368D01*
X54391Y83926D01*
X52016Y85419D01*
X49599Y86844D01*
X47144Y88201D01*
X44652Y89488D01*
X42125Y90705D01*
X39564Y91851D01*
X36973Y92925D01*
X34352Y93925D01*
X31704Y94852D01*
X29031Y95703D01*
X26336Y96480D01*
X23620Y97181D01*
X20885Y97805D01*
X18133Y98352D01*
X15368Y98822D01*
X12590Y99214D01*
X9803Y99528D01*
X7007Y99764D01*
X4207Y99921D01*
X1403Y100000D01*
X-1403Y100000D01*
X-4207Y99921D01*
X-7007Y99764D01*
X-9803Y99528D01*
X-12590Y99214D01*
X-15368Y98822D01*
X-18133Y98352D01*
X-20885Y97805D01*
X-23620Y97181D01*
X-26336Y96480D01*
X-29031Y95703D01*
X-31704Y94852D01*
X-34352Y93925D01*
X-36973Y92925D01*
X-39564Y91851D01*
X-42125Y90705D01*
X-44652Y89488D01*
X-47144Y88201D01*
X-49599Y86844D01*
X-52016Y85419D01*
X-54391Y83926D01*
X-56723Y82368D01*
X-59011Y80744D01*
X-61252Y79058D01*
X-63446Y77309D01*
X-65589Y75499D01*
X-67681Y73630D01*
X-69719Y71702D01*
X-71702Y69719D01*
X-73630Y67681D01*
X-75499Y65589D01*
X-77309Y63446D01*
X-79058Y61252D01*
X-80744Y59011D01*
X-82368Y56723D01*
X-83926Y54391D01*
X-85419Y52016D01*
X-86844Y49599D01*
X-88201Y47144D01*
X-89488Y44652D01*
X-90705Y42125D01*
X-91851Y39564D01*
X-92925Y36973D01*
X-93925Y34352D01*
X-94852Y31704D01*
X-95703Y29031D01*
X-96480Y26336D01*
X-97181Y23620D01*
X-97805Y20885D01*
X-98352Y18133D01*
X-98822Y15368D01*
X-99214Y12590D01*
X-99528Y9803D01*
X-99764Y7007D01*
X-99921Y4207D01*
X-100000Y1403D01*
X-100000Y-1403D01*
X-99921Y-4207D01*
X-99764Y-7007D01*
X-99528Y-9803D01*
X-99214Y-12590D01*
X-98822Y-15368D01*
X-98352Y-18133D01*
X-97805Y-20885D01*
X-97181Y-23620D01*
X-96480Y-26336D01*
X-95703Y-29031D01*
X-94852Y-31704D01*
X-93925Y-34352D01*
X-92925Y-36973D01*
X-91851Y-39564D01*
X-90705Y-42125D01*
X-89488Y-44652D01*
X-88201Y-47144D01*
X-86844Y-49599D01*
X-85419Y-52016D01*
X-83926Y-54391D01*
X-82368Y-56723D01*
X-80744Y-59011D01*
X-79058Y-61252D01*
X-77309Y-63446D01*
X-75499Y-65589D01*
X-73630Y-67681D01*
X-71702Y-69719D01*
X-69719Y-71702D01*
X-67681Y-73630D01*
X-65589Y-75499D01*
X-63446Y-77309D01*
X-61252Y-79058D01*
X-59011Y-80744D01*
X-56723Y-82368D01*
X-54391Y-83926D01*
X-52016Y-85419D01*
X-49599Y-86844D01*
X-47144Y-88201D01*
X-44652Y-89488D01*
X-42125Y-90705D01*
X-39564Y-91851D01*
X-36973Y-92925D01*
X-34352Y-93925D01*
X-31704Y-94852D01*
X-29031Y-95703D01*
X-26336Y-96480D01*
X-23620Y-97181D01*
X-20885Y-97805D01*
X-18133Y-98352D01*
X-15368Y-98822D01*
X-12590Y-99214D01*
X-9803Y-99528D01*
X-7007Y-99764D01*
X-4207Y-99921D01*
X-1403Y-100000D01*
X1403Y-100000D01*
X4207Y-99921D01*
X7007Y-99764D01*
X9803Y-99528D01*
X12590Y-99214D01*
X15368Y-98822D01*
X18133Y-98352D01*
X20885Y-97805D01*
X23620Y-97181D01*
X26336Y-96480D01*
X29031Y-95703D01*
X31704Y-94852D01*
X34352Y-93925D01*
X36973Y-92925D01*
X39564Y-91851D01*
X42125Y-90705D01*
X44652Y-89488D01*
X47144Y-88201D01*
X49599Y-86844D01*
X52016Y-85419D01*
X54391Y-83926D01*
X56723Y-82368D01*
X59011Y-80744D01*
X61252Y-79058D01*
X63446Y-77309D01*
X65589Y-75499D01*
X67681Y-73630D01*
X69719Y-71702D01*
X71702Y-69719D01*
X73630Y-67681D01*
X75499Y-65589D01*
X77309Y-63446D01*
X79058Y-61252D01*
X80744Y-59011D01*
X82368Y-56723D01*
X83926Y-54391D01*
X85419Y-52016D01*
X86844Y-49599D01*
X88201Y-47144D01*
X89488Y-44652D01*
X90705Y-42125D01*
X91851Y-39564D01*
X92925Y-36973D01*
X93925Y-34352D01*
X94852Y-31704D01*
X95703Y-29031D01*
X96480Y-26336D01*
X97181Y-23620D01*
X97805Y-20885D01*
X98352Y-18133D01*
X98822Y-15368D01*
X99214Y-12590D01*
X99528Y-9803D01*
X99764Y-7007D01*
X99921Y-4207D01*
X100000Y-1403D01*
M02*
