G04 EAGLE Gerber RS-274X export*
G75*
%MOMM*%
%FSLAX34Y34*%
%LPD*%
%INSilkscreen Top*%
%IPPOS*%
%AMOC8*
5,1,8,0,0,1.08239X$1,22.5*%
G01*
G04 Define Apertures*
%ADD10C,0.120000*%
G36*
X-38100Y190003D02*
X-50441Y190003D01*
X-50441Y194084D01*
X-50435Y194471D01*
X-50416Y194846D01*
X-50386Y195210D01*
X-50343Y195562D01*
X-50287Y195904D01*
X-50220Y196234D01*
X-50140Y196554D01*
X-50048Y196862D01*
X-49943Y197159D01*
X-49827Y197444D01*
X-49698Y197719D01*
X-49556Y197982D01*
X-49403Y198234D01*
X-49237Y198475D01*
X-49059Y198705D01*
X-48869Y198923D01*
X-48667Y199130D01*
X-48455Y199323D01*
X-48232Y199502D01*
X-48000Y199669D01*
X-47756Y199822D01*
X-47503Y199961D01*
X-47239Y200088D01*
X-46965Y200201D01*
X-46680Y200301D01*
X-46385Y200387D01*
X-46080Y200460D01*
X-45764Y200520D01*
X-45438Y200567D01*
X-45101Y200600D01*
X-44755Y200620D01*
X-44397Y200627D01*
X-43928Y200615D01*
X-43473Y200580D01*
X-43032Y200522D01*
X-42607Y200441D01*
X-42197Y200336D01*
X-41802Y200208D01*
X-41421Y200057D01*
X-41056Y199882D01*
X-40708Y199686D01*
X-40382Y199471D01*
X-40076Y199237D01*
X-39791Y198982D01*
X-39528Y198709D01*
X-39285Y198416D01*
X-39063Y198103D01*
X-38862Y197772D01*
X-38683Y197423D01*
X-38529Y197062D01*
X-38398Y196688D01*
X-38290Y196300D01*
X-38207Y195899D01*
X-38148Y195486D01*
X-38112Y195059D01*
X-38100Y194618D01*
X-38100Y190003D01*
G37*
%LPC*%
G36*
X-39440Y191676D02*
X-39440Y194426D01*
X-39449Y194760D01*
X-39477Y195084D01*
X-39524Y195398D01*
X-39589Y195701D01*
X-39673Y195994D01*
X-39775Y196277D01*
X-39896Y196550D01*
X-40036Y196812D01*
X-40193Y197062D01*
X-40366Y197297D01*
X-40556Y197517D01*
X-40763Y197722D01*
X-40985Y197912D01*
X-41225Y198088D01*
X-41480Y198248D01*
X-41752Y198393D01*
X-42039Y198523D01*
X-42338Y198635D01*
X-42650Y198730D01*
X-42974Y198807D01*
X-43311Y198868D01*
X-43661Y198911D01*
X-44023Y198937D01*
X-44397Y198945D01*
X-44954Y198926D01*
X-45477Y198867D01*
X-45965Y198768D01*
X-46420Y198631D01*
X-46840Y198454D01*
X-47226Y198238D01*
X-47578Y197983D01*
X-47896Y197688D01*
X-48179Y197357D01*
X-48423Y196990D01*
X-48630Y196587D01*
X-48800Y196150D01*
X-48931Y195678D01*
X-49025Y195170D01*
X-49082Y194627D01*
X-49101Y194049D01*
X-49101Y191676D01*
X-39440Y191676D01*
G37*
%LPD*%
G36*
X-38100Y202866D02*
X-39440Y202866D01*
X-39440Y206011D01*
X-48934Y206011D01*
X-46946Y203225D01*
X-48435Y203225D01*
X-50441Y206142D01*
X-50441Y207596D01*
X-39440Y207596D01*
X-39440Y210600D01*
X-38100Y210600D01*
X-38100Y202866D01*
G37*
G36*
X145492Y127997D02*
X139322Y138684D01*
X142856Y140725D01*
X143194Y140913D01*
X143528Y141085D01*
X143859Y141240D01*
X144186Y141379D01*
X144509Y141502D01*
X144829Y141609D01*
X145145Y141699D01*
X145458Y141773D01*
X145768Y141831D01*
X146073Y141873D01*
X146375Y141899D01*
X146674Y141908D01*
X146969Y141901D01*
X147261Y141878D01*
X147549Y141839D01*
X147833Y141783D01*
X148113Y141712D01*
X148386Y141624D01*
X148653Y141522D01*
X148913Y141403D01*
X149167Y141269D01*
X149415Y141119D01*
X149657Y140954D01*
X149892Y140773D01*
X150120Y140577D01*
X150343Y140364D01*
X150559Y140136D01*
X150769Y139893D01*
X150972Y139634D01*
X151169Y139359D01*
X151360Y139069D01*
X151544Y138763D01*
X151769Y138350D01*
X151966Y137938D01*
X152136Y137528D01*
X152278Y137119D01*
X152392Y136712D01*
X152479Y136305D01*
X152538Y135900D01*
X152570Y135497D01*
X152574Y135098D01*
X152551Y134707D01*
X152501Y134325D01*
X152423Y133952D01*
X152318Y133586D01*
X152186Y133230D01*
X152026Y132881D01*
X151839Y132541D01*
X151627Y132212D01*
X151391Y131898D01*
X151133Y131597D01*
X150851Y131311D01*
X150545Y131038D01*
X150217Y130780D01*
X149865Y130535D01*
X149489Y130305D01*
X145492Y127997D01*
G37*
%LPC*%
G36*
X146271Y129994D02*
X148653Y131369D01*
X148937Y131544D01*
X149204Y131730D01*
X149452Y131927D01*
X149683Y132136D01*
X149895Y132355D01*
X150089Y132585D01*
X150264Y132826D01*
X150422Y133078D01*
X150559Y133339D01*
X150676Y133607D01*
X150772Y133881D01*
X150846Y134163D01*
X150899Y134451D01*
X150932Y134745D01*
X150943Y135047D01*
X150932Y135355D01*
X150901Y135668D01*
X150849Y135983D01*
X150775Y136301D01*
X150680Y136620D01*
X150564Y136942D01*
X150426Y137266D01*
X150268Y137593D01*
X150088Y137922D01*
X149792Y138394D01*
X149480Y138817D01*
X149151Y139191D01*
X148805Y139516D01*
X148441Y139792D01*
X148061Y140018D01*
X147664Y140195D01*
X147250Y140324D01*
X146821Y140402D01*
X146381Y140431D01*
X145929Y140409D01*
X145466Y140337D01*
X144991Y140215D01*
X144504Y140042D01*
X144006Y139820D01*
X143496Y139547D01*
X141440Y138360D01*
X146271Y129994D01*
G37*
%LPD*%
G36*
X156230Y134197D02*
X155674Y135160D01*
X155630Y135708D01*
X155621Y136243D01*
X155650Y136764D01*
X155714Y137271D01*
X155805Y137766D01*
X155913Y138248D01*
X156036Y138719D01*
X156177Y139177D01*
X156482Y140060D01*
X156805Y140900D01*
X157107Y141701D01*
X157350Y142469D01*
X157444Y142840D01*
X157511Y143204D01*
X157552Y143560D01*
X157566Y143908D01*
X157543Y144250D01*
X157473Y144588D01*
X157356Y144921D01*
X157191Y145249D01*
X157060Y145458D01*
X156919Y145646D01*
X156770Y145812D01*
X156611Y145956D01*
X156444Y146079D01*
X156267Y146180D01*
X156082Y146259D01*
X155887Y146317D01*
X155686Y146353D01*
X155482Y146366D01*
X155273Y146357D01*
X155061Y146325D01*
X154845Y146271D01*
X154625Y146195D01*
X154401Y146096D01*
X154173Y145975D01*
X153964Y145844D01*
X153774Y145704D01*
X153601Y145555D01*
X153446Y145397D01*
X153310Y145229D01*
X153192Y145052D01*
X153092Y144866D01*
X153010Y144671D01*
X152948Y144469D01*
X152907Y144263D01*
X152888Y144054D01*
X152890Y143842D01*
X152914Y143626D01*
X152960Y143406D01*
X153026Y143183D01*
X153115Y142956D01*
X151645Y142279D01*
X151514Y142621D01*
X151418Y142960D01*
X151356Y143297D01*
X151328Y143631D01*
X151334Y143964D01*
X151374Y144294D01*
X151447Y144622D01*
X151555Y144948D01*
X151695Y145266D01*
X151865Y145570D01*
X152066Y145860D01*
X152297Y146135D01*
X152559Y146397D01*
X152850Y146644D01*
X153173Y146878D01*
X153525Y147097D01*
X153924Y147312D01*
X154314Y147489D01*
X154694Y147629D01*
X155064Y147732D01*
X155425Y147797D01*
X155776Y147825D01*
X156118Y147816D01*
X156450Y147769D01*
X156769Y147686D01*
X157073Y147567D01*
X157361Y147413D01*
X157634Y147223D01*
X157891Y146997D01*
X158132Y146735D01*
X158358Y146438D01*
X158568Y146105D01*
X158730Y145784D01*
X158855Y145444D01*
X158945Y145084D01*
X158998Y144704D01*
X159016Y144305D01*
X158999Y143886D01*
X158947Y143447D01*
X158861Y142987D01*
X158719Y142439D01*
X158496Y141732D01*
X158195Y140867D01*
X157814Y139844D01*
X157601Y139257D01*
X157422Y138714D01*
X157278Y138214D01*
X157168Y137757D01*
X157092Y137335D01*
X157049Y136939D01*
X157039Y136568D01*
X157062Y136224D01*
X162637Y139443D01*
X163307Y138282D01*
X156230Y134197D01*
G37*
G36*
X190701Y-65230D02*
X190310Y-65211D01*
X189920Y-65164D01*
X189530Y-65090D01*
X189141Y-64989D01*
X188752Y-64861D01*
X188364Y-64706D01*
X187977Y-64523D01*
X187589Y-64314D01*
X183592Y-62006D01*
X189762Y-51318D01*
X193297Y-53359D01*
X193629Y-53558D01*
X193944Y-53761D01*
X194244Y-53970D01*
X194528Y-54183D01*
X194796Y-54402D01*
X195049Y-54626D01*
X195285Y-54854D01*
X195506Y-55088D01*
X195711Y-55327D01*
X195900Y-55571D01*
X196073Y-55820D01*
X196231Y-56074D01*
X196372Y-56333D01*
X196498Y-56597D01*
X196608Y-56866D01*
X196702Y-57140D01*
X196780Y-57418D01*
X196841Y-57698D01*
X196885Y-57981D01*
X196913Y-58265D01*
X196924Y-58552D01*
X196918Y-58842D01*
X196896Y-59134D01*
X196856Y-59428D01*
X196800Y-59724D01*
X196728Y-60023D01*
X196639Y-60324D01*
X196533Y-60627D01*
X196410Y-60933D01*
X196270Y-61241D01*
X196114Y-61551D01*
X195941Y-61864D01*
X195696Y-62265D01*
X195439Y-62642D01*
X195168Y-62994D01*
X194885Y-63321D01*
X194590Y-63624D01*
X194281Y-63903D01*
X193960Y-64156D01*
X193626Y-64386D01*
X193283Y-64589D01*
X192933Y-64764D01*
X192577Y-64911D01*
X192214Y-65031D01*
X191846Y-65122D01*
X191470Y-65186D01*
X191089Y-65222D01*
X190701Y-65230D01*
G37*
%LPC*%
G36*
X190457Y-63734D02*
X190752Y-63723D01*
X191042Y-63690D01*
X191328Y-63636D01*
X191609Y-63560D01*
X191885Y-63462D01*
X192156Y-63342D01*
X192423Y-63201D01*
X192685Y-63038D01*
X192940Y-62855D01*
X193187Y-62652D01*
X193425Y-62429D01*
X193654Y-62187D01*
X193875Y-61925D01*
X194087Y-61644D01*
X194290Y-61343D01*
X194485Y-61023D01*
X194746Y-60531D01*
X194957Y-60049D01*
X195116Y-59577D01*
X195224Y-59115D01*
X195281Y-58663D01*
X195287Y-58220D01*
X195242Y-57787D01*
X195146Y-57365D01*
X195000Y-56954D01*
X194805Y-56559D01*
X194560Y-56179D01*
X194266Y-55813D01*
X193922Y-55463D01*
X193530Y-55128D01*
X193088Y-54807D01*
X192597Y-54502D01*
X190541Y-53315D01*
X185711Y-61682D01*
X188093Y-63057D01*
X188387Y-63216D01*
X188681Y-63354D01*
X188976Y-63470D01*
X189272Y-63566D01*
X189567Y-63640D01*
X189864Y-63692D01*
X190160Y-63724D01*
X190457Y-63734D01*
G37*
%LPD*%
G36*
X200221Y-71200D02*
X199842Y-71167D01*
X199453Y-71095D01*
X199054Y-70983D01*
X198644Y-70831D01*
X198223Y-70639D01*
X197793Y-70407D01*
X197404Y-70167D01*
X197048Y-69916D01*
X196727Y-69654D01*
X196439Y-69381D01*
X196185Y-69097D01*
X195964Y-68802D01*
X195778Y-68496D01*
X195625Y-68179D01*
X195507Y-67853D01*
X195427Y-67519D01*
X195384Y-67177D01*
X195378Y-66827D01*
X195409Y-66469D01*
X195478Y-66104D01*
X195583Y-65731D01*
X195726Y-65350D01*
X197211Y-66036D01*
X197120Y-66289D01*
X197051Y-66536D01*
X197004Y-66776D01*
X196980Y-67009D01*
X196979Y-67235D01*
X197000Y-67454D01*
X197043Y-67667D01*
X197109Y-67873D01*
X197197Y-68072D01*
X197308Y-68264D01*
X197441Y-68450D01*
X197597Y-68629D01*
X197775Y-68801D01*
X197976Y-68966D01*
X198199Y-69125D01*
X198445Y-69276D01*
X198701Y-69413D01*
X198951Y-69527D01*
X199198Y-69616D01*
X199439Y-69681D01*
X199676Y-69722D01*
X199908Y-69740D01*
X200135Y-69734D01*
X200358Y-69703D01*
X200573Y-69648D01*
X200780Y-69567D01*
X200976Y-69460D01*
X201163Y-69326D01*
X201341Y-69167D01*
X201509Y-68982D01*
X201668Y-68771D01*
X201817Y-68533D01*
X201929Y-68315D01*
X202013Y-68097D01*
X202069Y-67878D01*
X202098Y-67660D01*
X202098Y-67441D01*
X202071Y-67222D01*
X202015Y-67003D01*
X201932Y-66784D01*
X201821Y-66567D01*
X201683Y-66355D01*
X201517Y-66147D01*
X201324Y-65944D01*
X201103Y-65745D01*
X200855Y-65551D01*
X200579Y-65361D01*
X200276Y-65176D01*
X199503Y-64729D01*
X200186Y-63546D01*
X200929Y-63975D01*
X201206Y-64125D01*
X201477Y-64250D01*
X201740Y-64352D01*
X201996Y-64428D01*
X202246Y-64480D01*
X202488Y-64508D01*
X202724Y-64512D01*
X202953Y-64491D01*
X203171Y-64446D01*
X203378Y-64379D01*
X203572Y-64289D01*
X203753Y-64176D01*
X203922Y-64039D01*
X204078Y-63881D01*
X204221Y-63699D01*
X204352Y-63494D01*
X204465Y-63281D01*
X204555Y-63070D01*
X204623Y-62861D01*
X204669Y-62654D01*
X204693Y-62450D01*
X204694Y-62247D01*
X204673Y-62047D01*
X204630Y-61849D01*
X204563Y-61655D01*
X204472Y-61468D01*
X204357Y-61288D01*
X204218Y-61114D01*
X204055Y-60947D01*
X203867Y-60787D01*
X203655Y-60634D01*
X203418Y-60487D01*
X203194Y-60367D01*
X202972Y-60268D01*
X202753Y-60189D01*
X202535Y-60131D01*
X202321Y-60094D01*
X202108Y-60078D01*
X201899Y-60082D01*
X201691Y-60107D01*
X201489Y-60152D01*
X201294Y-60218D01*
X201108Y-60304D01*
X200928Y-60410D01*
X200757Y-60536D01*
X200594Y-60683D01*
X200438Y-60850D01*
X200289Y-61037D01*
X198978Y-60138D01*
X199212Y-59848D01*
X199461Y-59590D01*
X199723Y-59364D01*
X200000Y-59171D01*
X200291Y-59010D01*
X200596Y-58880D01*
X200915Y-58783D01*
X201249Y-58719D01*
X201591Y-58686D01*
X201936Y-58686D01*
X202285Y-58719D01*
X202638Y-58785D01*
X202994Y-58883D01*
X203353Y-59014D01*
X203716Y-59177D01*
X204082Y-59373D01*
X204466Y-59611D01*
X204814Y-59858D01*
X205126Y-60116D01*
X205403Y-60385D01*
X205643Y-60664D01*
X205848Y-60953D01*
X206017Y-61253D01*
X206150Y-61563D01*
X206245Y-61880D01*
X206303Y-62199D01*
X206322Y-62520D01*
X206302Y-62843D01*
X206244Y-63169D01*
X206147Y-63497D01*
X206012Y-63827D01*
X205839Y-64160D01*
X205686Y-64405D01*
X205521Y-64627D01*
X205346Y-64828D01*
X205160Y-65006D01*
X204963Y-65161D01*
X204754Y-65295D01*
X204535Y-65406D01*
X204305Y-65494D01*
X204065Y-65561D01*
X203816Y-65605D01*
X203558Y-65627D01*
X203292Y-65626D01*
X203017Y-65604D01*
X202733Y-65558D01*
X202440Y-65491D01*
X202139Y-65402D01*
X202121Y-65432D01*
X202389Y-65641D01*
X202630Y-65857D01*
X202845Y-66081D01*
X203034Y-66313D01*
X203196Y-66552D01*
X203331Y-66798D01*
X203440Y-67052D01*
X203523Y-67313D01*
X203579Y-67578D01*
X203607Y-67841D01*
X203609Y-68103D01*
X203583Y-68365D01*
X203531Y-68625D01*
X203451Y-68883D01*
X203344Y-69141D01*
X203209Y-69398D01*
X202987Y-69749D01*
X202748Y-70062D01*
X202491Y-70337D01*
X202217Y-70574D01*
X201925Y-70774D01*
X201616Y-70935D01*
X201290Y-71059D01*
X200946Y-71145D01*
X200589Y-71193D01*
X200221Y-71200D01*
G37*
G36*
X50800Y-209997D02*
X38459Y-209997D01*
X38459Y-205916D01*
X38465Y-205530D01*
X38484Y-205154D01*
X38515Y-204790D01*
X38558Y-204438D01*
X38613Y-204096D01*
X38680Y-203766D01*
X38760Y-203446D01*
X38852Y-203138D01*
X38957Y-202841D01*
X39073Y-202556D01*
X39202Y-202281D01*
X39344Y-202018D01*
X39497Y-201766D01*
X39663Y-201525D01*
X39841Y-201295D01*
X40031Y-201077D01*
X40233Y-200870D01*
X40445Y-200678D01*
X40668Y-200498D01*
X40900Y-200331D01*
X41144Y-200178D01*
X41397Y-200039D01*
X41661Y-199912D01*
X41935Y-199799D01*
X42220Y-199699D01*
X42515Y-199613D01*
X42820Y-199540D01*
X43136Y-199480D01*
X43462Y-199433D01*
X43799Y-199400D01*
X44145Y-199380D01*
X44503Y-199373D01*
X44973Y-199385D01*
X45427Y-199420D01*
X45868Y-199478D01*
X46293Y-199559D01*
X46703Y-199664D01*
X47098Y-199792D01*
X47479Y-199943D01*
X47844Y-200118D01*
X48192Y-200314D01*
X48518Y-200529D01*
X48824Y-200764D01*
X49109Y-201018D01*
X49372Y-201291D01*
X49615Y-201584D01*
X49837Y-201897D01*
X50038Y-202229D01*
X50217Y-202577D01*
X50371Y-202938D01*
X50502Y-203312D01*
X50610Y-203700D01*
X50693Y-204101D01*
X50752Y-204514D01*
X50788Y-204941D01*
X50800Y-205382D01*
X50800Y-209997D01*
G37*
%LPC*%
G36*
X49460Y-208324D02*
X49460Y-205574D01*
X49451Y-205240D01*
X49423Y-204916D01*
X49376Y-204602D01*
X49311Y-204299D01*
X49227Y-204006D01*
X49125Y-203723D01*
X49004Y-203450D01*
X48864Y-203188D01*
X48707Y-202938D01*
X48534Y-202703D01*
X48344Y-202483D01*
X48137Y-202278D01*
X47915Y-202088D01*
X47675Y-201912D01*
X47420Y-201752D01*
X47148Y-201607D01*
X46861Y-201477D01*
X46562Y-201365D01*
X46250Y-201270D01*
X45926Y-201193D01*
X45589Y-201132D01*
X45239Y-201089D01*
X44877Y-201063D01*
X44503Y-201055D01*
X43946Y-201075D01*
X43423Y-201133D01*
X42935Y-201232D01*
X42481Y-201369D01*
X42060Y-201546D01*
X41674Y-201762D01*
X41322Y-202017D01*
X41004Y-202312D01*
X40721Y-202644D01*
X40477Y-203010D01*
X40270Y-203413D01*
X40100Y-203850D01*
X39969Y-204322D01*
X39875Y-204830D01*
X39818Y-205373D01*
X39799Y-205951D01*
X39799Y-208324D01*
X49460Y-208324D01*
G37*
%LPD*%
G36*
X48006Y-198088D02*
X46780Y-198088D01*
X38459Y-192439D01*
X38459Y-190784D01*
X46762Y-190784D01*
X46762Y-189050D01*
X48006Y-189050D01*
X48006Y-190784D01*
X50800Y-190784D01*
X50800Y-192273D01*
X48006Y-192273D01*
X48006Y-198088D01*
G37*
%LPC*%
G36*
X46762Y-196634D02*
X46762Y-192273D01*
X40237Y-192273D01*
X40701Y-192518D01*
X41279Y-192860D01*
X45939Y-196021D01*
X46587Y-196494D01*
X46762Y-196634D01*
G37*
%LPD*%
G36*
X-156458Y-148993D02*
X-162628Y-138305D01*
X-159094Y-136265D01*
X-158756Y-136077D01*
X-158422Y-135905D01*
X-158091Y-135750D01*
X-157764Y-135611D01*
X-157441Y-135488D01*
X-157121Y-135381D01*
X-156805Y-135290D01*
X-156492Y-135216D01*
X-156182Y-135158D01*
X-155877Y-135116D01*
X-155574Y-135091D01*
X-155276Y-135082D01*
X-154981Y-135088D01*
X-154689Y-135112D01*
X-154401Y-135151D01*
X-154117Y-135207D01*
X-153837Y-135278D01*
X-153564Y-135365D01*
X-153297Y-135468D01*
X-153037Y-135587D01*
X-152783Y-135721D01*
X-152535Y-135870D01*
X-152293Y-136036D01*
X-152058Y-136217D01*
X-151830Y-136413D01*
X-151607Y-136625D01*
X-151391Y-136853D01*
X-151181Y-137097D01*
X-150978Y-137356D01*
X-150781Y-137631D01*
X-150590Y-137921D01*
X-150406Y-138227D01*
X-150181Y-138640D01*
X-149984Y-139051D01*
X-149814Y-139461D01*
X-149672Y-139870D01*
X-149558Y-140278D01*
X-149471Y-140684D01*
X-149412Y-141089D01*
X-149380Y-141493D01*
X-149376Y-141892D01*
X-149399Y-142282D01*
X-149449Y-142664D01*
X-149527Y-143038D01*
X-149632Y-143403D01*
X-149764Y-143760D01*
X-149924Y-144109D01*
X-150111Y-144448D01*
X-150323Y-144777D01*
X-150559Y-145092D01*
X-150817Y-145393D01*
X-151099Y-145679D01*
X-151405Y-145952D01*
X-151733Y-146210D01*
X-152085Y-146455D01*
X-152461Y-146685D01*
X-156458Y-148993D01*
G37*
%LPC*%
G36*
X-155679Y-146996D02*
X-153297Y-145621D01*
X-153013Y-145446D01*
X-152746Y-145259D01*
X-152498Y-145062D01*
X-152267Y-144854D01*
X-152055Y-144635D01*
X-151861Y-144405D01*
X-151686Y-144164D01*
X-151528Y-143912D01*
X-151390Y-143651D01*
X-151274Y-143383D01*
X-151178Y-143108D01*
X-151104Y-142827D01*
X-151051Y-142539D01*
X-151018Y-142244D01*
X-151007Y-141943D01*
X-151018Y-141634D01*
X-151049Y-141322D01*
X-151101Y-141006D01*
X-151175Y-140689D01*
X-151270Y-140369D01*
X-151386Y-140047D01*
X-151524Y-139723D01*
X-151682Y-139397D01*
X-151862Y-139068D01*
X-152158Y-138596D01*
X-152470Y-138173D01*
X-152799Y-137799D01*
X-153145Y-137474D01*
X-153509Y-137198D01*
X-153889Y-136972D01*
X-154286Y-136794D01*
X-154700Y-136666D01*
X-155129Y-136587D01*
X-155569Y-136559D01*
X-156021Y-136581D01*
X-156484Y-136653D01*
X-156959Y-136775D01*
X-157446Y-136947D01*
X-157944Y-137170D01*
X-158454Y-137443D01*
X-160510Y-138629D01*
X-155679Y-146996D01*
G37*
%LPD*%
G36*
X-144681Y-141730D02*
X-145007Y-141714D01*
X-145326Y-141669D01*
X-145634Y-141592D01*
X-145931Y-141486D01*
X-146217Y-141349D01*
X-146494Y-141181D01*
X-146759Y-140983D01*
X-147014Y-140755D01*
X-147258Y-140496D01*
X-145970Y-139539D01*
X-145800Y-139697D01*
X-145626Y-139836D01*
X-145449Y-139957D01*
X-145268Y-140059D01*
X-145084Y-140143D01*
X-144897Y-140208D01*
X-144706Y-140255D01*
X-144512Y-140283D01*
X-144314Y-140292D01*
X-144113Y-140284D01*
X-143908Y-140256D01*
X-143700Y-140210D01*
X-143488Y-140146D01*
X-143273Y-140063D01*
X-143054Y-139962D01*
X-142832Y-139842D01*
X-142571Y-139677D01*
X-142336Y-139500D01*
X-142128Y-139311D01*
X-141948Y-139110D01*
X-141794Y-138896D01*
X-141667Y-138671D01*
X-141567Y-138433D01*
X-141494Y-138184D01*
X-141448Y-137926D01*
X-141431Y-137664D01*
X-141442Y-137397D01*
X-141482Y-137127D01*
X-141550Y-136851D01*
X-141647Y-136572D01*
X-141771Y-136288D01*
X-141925Y-136000D01*
X-142077Y-135760D01*
X-142241Y-135543D01*
X-142418Y-135349D01*
X-142608Y-135179D01*
X-142810Y-135032D01*
X-143025Y-134908D01*
X-143252Y-134808D01*
X-143492Y-134731D01*
X-143740Y-134679D01*
X-143989Y-134655D01*
X-144242Y-134658D01*
X-144496Y-134689D01*
X-144753Y-134746D01*
X-145013Y-134831D01*
X-145275Y-134944D01*
X-145539Y-135083D01*
X-145805Y-135251D01*
X-146048Y-135436D01*
X-146270Y-135636D01*
X-146470Y-135853D01*
X-146650Y-136094D01*
X-146812Y-136364D01*
X-146957Y-136665D01*
X-147084Y-136997D01*
X-148419Y-137768D01*
X-151382Y-131812D01*
X-145306Y-128304D01*
X-144636Y-129465D01*
X-149468Y-132255D01*
X-147715Y-135763D01*
X-147579Y-135471D01*
X-147417Y-135193D01*
X-147229Y-134928D01*
X-147015Y-134677D01*
X-146776Y-134439D01*
X-146510Y-134214D01*
X-146219Y-134004D01*
X-145902Y-133806D01*
X-145509Y-133599D01*
X-145120Y-133432D01*
X-144734Y-133305D01*
X-144351Y-133219D01*
X-143972Y-133174D01*
X-143595Y-133169D01*
X-143223Y-133204D01*
X-142853Y-133280D01*
X-142495Y-133393D01*
X-142156Y-133541D01*
X-141836Y-133723D01*
X-141535Y-133940D01*
X-141254Y-134191D01*
X-140991Y-134477D01*
X-140748Y-134797D01*
X-140524Y-135151D01*
X-140302Y-135572D01*
X-140124Y-135988D01*
X-139991Y-136400D01*
X-139903Y-136808D01*
X-139858Y-137211D01*
X-139858Y-137609D01*
X-139903Y-138004D01*
X-139992Y-138394D01*
X-140124Y-138773D01*
X-140298Y-139137D01*
X-140513Y-139484D01*
X-140771Y-139814D01*
X-141070Y-140129D01*
X-141411Y-140427D01*
X-141794Y-140709D01*
X-142219Y-140974D01*
X-142589Y-141174D01*
X-142953Y-141344D01*
X-143311Y-141483D01*
X-143663Y-141591D01*
X-144009Y-141668D01*
X-144348Y-141714D01*
X-144681Y-141730D01*
G37*
G36*
X-200149Y57780D02*
X-200540Y57799D01*
X-200930Y57846D01*
X-201320Y57920D01*
X-201709Y58021D01*
X-202098Y58149D01*
X-202486Y58304D01*
X-202873Y58487D01*
X-203261Y58697D01*
X-207258Y61005D01*
X-201088Y71692D01*
X-197553Y69651D01*
X-197221Y69453D01*
X-196906Y69249D01*
X-196606Y69041D01*
X-196322Y68827D01*
X-196054Y68608D01*
X-195801Y68385D01*
X-195565Y68156D01*
X-195344Y67922D01*
X-195139Y67683D01*
X-194950Y67439D01*
X-194777Y67190D01*
X-194619Y66936D01*
X-194478Y66677D01*
X-194352Y66413D01*
X-194242Y66144D01*
X-194148Y65870D01*
X-194070Y65592D01*
X-194009Y65312D01*
X-193965Y65030D01*
X-193937Y64745D01*
X-193926Y64458D01*
X-193932Y64168D01*
X-193954Y63877D01*
X-193994Y63583D01*
X-194050Y63286D01*
X-194122Y62987D01*
X-194211Y62686D01*
X-194317Y62383D01*
X-194440Y62077D01*
X-194580Y61769D01*
X-194736Y61459D01*
X-194909Y61146D01*
X-195154Y60745D01*
X-195411Y60369D01*
X-195682Y60016D01*
X-195965Y59689D01*
X-196260Y59386D01*
X-196569Y59108D01*
X-196890Y58854D01*
X-197224Y58625D01*
X-197567Y58422D01*
X-197917Y58246D01*
X-198273Y58099D01*
X-198636Y57980D01*
X-199004Y57888D01*
X-199380Y57824D01*
X-199761Y57788D01*
X-200149Y57780D01*
G37*
%LPC*%
G36*
X-200393Y59276D02*
X-200098Y59287D01*
X-199808Y59320D01*
X-199522Y59374D01*
X-199241Y59451D01*
X-198965Y59549D01*
X-198694Y59668D01*
X-198427Y59809D01*
X-198165Y59972D01*
X-197910Y60156D01*
X-197663Y60359D01*
X-197425Y60581D01*
X-197196Y60823D01*
X-196975Y61085D01*
X-196763Y61366D01*
X-196560Y61667D01*
X-196365Y61987D01*
X-196104Y62479D01*
X-195893Y62961D01*
X-195734Y63433D01*
X-195626Y63895D01*
X-195569Y64348D01*
X-195563Y64790D01*
X-195608Y65223D01*
X-195704Y65646D01*
X-195850Y66056D01*
X-196045Y66451D01*
X-196290Y66832D01*
X-196584Y67197D01*
X-196928Y67547D01*
X-197320Y67883D01*
X-197762Y68203D01*
X-198253Y68508D01*
X-200309Y69695D01*
X-205139Y61329D01*
X-202757Y59954D01*
X-202463Y59794D01*
X-202169Y59657D01*
X-201874Y59540D01*
X-201578Y59445D01*
X-201283Y59371D01*
X-200986Y59318D01*
X-200690Y59286D01*
X-200393Y59276D01*
G37*
%LPD*%
G36*
X-190915Y51877D02*
X-191301Y51915D01*
X-191690Y51998D01*
X-192083Y52123D01*
X-192481Y52291D01*
X-192883Y52503D01*
X-193102Y52637D01*
X-193309Y52777D01*
X-193684Y53077D01*
X-194008Y53404D01*
X-194282Y53758D01*
X-194505Y54139D01*
X-194677Y54546D01*
X-194798Y54979D01*
X-194869Y55440D01*
X-194888Y55924D01*
X-194855Y56429D01*
X-194771Y56954D01*
X-194634Y57501D01*
X-194446Y58069D01*
X-194206Y58658D01*
X-193913Y59267D01*
X-193569Y59898D01*
X-193165Y60563D01*
X-192752Y61169D01*
X-192332Y61718D01*
X-191904Y62208D01*
X-191468Y62640D01*
X-191025Y63014D01*
X-190574Y63329D01*
X-190114Y63587D01*
X-189652Y63784D01*
X-189189Y63920D01*
X-188728Y63994D01*
X-188267Y64007D01*
X-187806Y63957D01*
X-187576Y63910D01*
X-187346Y63847D01*
X-187116Y63768D01*
X-186886Y63674D01*
X-186656Y63565D01*
X-186427Y63440D01*
X-186136Y63261D01*
X-185870Y63073D01*
X-185627Y62876D01*
X-185407Y62670D01*
X-185212Y62455D01*
X-185041Y62231D01*
X-184893Y61999D01*
X-184769Y61757D01*
X-184669Y61507D01*
X-184593Y61247D01*
X-184540Y60979D01*
X-184511Y60701D01*
X-184506Y60415D01*
X-184525Y60120D01*
X-184568Y59816D01*
X-184634Y59503D01*
X-186075Y60021D01*
X-186014Y60393D01*
X-186006Y60742D01*
X-186052Y61067D01*
X-186151Y61369D01*
X-186303Y61648D01*
X-186509Y61902D01*
X-186769Y62134D01*
X-187081Y62341D01*
X-187375Y62488D01*
X-187672Y62591D01*
X-187972Y62651D01*
X-188275Y62668D01*
X-188581Y62640D01*
X-188891Y62569D01*
X-189203Y62455D01*
X-189519Y62297D01*
X-189835Y62097D01*
X-190149Y61854D01*
X-190460Y61569D01*
X-190769Y61243D01*
X-191075Y60874D01*
X-191379Y60463D01*
X-191680Y60011D01*
X-191979Y59516D01*
X-191587Y59722D01*
X-191181Y59865D01*
X-190761Y59945D01*
X-190326Y59962D01*
X-189885Y59918D01*
X-189446Y59814D01*
X-189226Y59740D01*
X-189008Y59651D01*
X-188789Y59547D01*
X-188571Y59429D01*
X-188219Y59206D01*
X-187903Y58966D01*
X-187622Y58708D01*
X-187378Y58432D01*
X-187169Y58138D01*
X-186996Y57826D01*
X-186859Y57496D01*
X-186757Y57148D01*
X-186693Y56789D01*
X-186668Y56426D01*
X-186681Y56059D01*
X-186732Y55687D01*
X-186823Y55312D01*
X-186952Y54932D01*
X-187119Y54547D01*
X-187325Y54159D01*
X-187577Y53755D01*
X-187845Y53391D01*
X-188129Y53065D01*
X-188428Y52778D01*
X-188744Y52530D01*
X-189075Y52321D01*
X-189422Y52150D01*
X-189785Y52019D01*
X-190157Y51928D01*
X-190534Y51881D01*
X-190915Y51877D01*
G37*
%LPC*%
G36*
X-191077Y53272D02*
X-190838Y53286D01*
X-190600Y53329D01*
X-190363Y53399D01*
X-190131Y53497D01*
X-189908Y53620D01*
X-189693Y53769D01*
X-189487Y53944D01*
X-189290Y54145D01*
X-189101Y54371D01*
X-188920Y54622D01*
X-188748Y54899D01*
X-188595Y55186D01*
X-188468Y55467D01*
X-188369Y55741D01*
X-188297Y56009D01*
X-188253Y56271D01*
X-188236Y56526D01*
X-188246Y56775D01*
X-188284Y57018D01*
X-188348Y57252D01*
X-188437Y57474D01*
X-188552Y57684D01*
X-188692Y57883D01*
X-188857Y58071D01*
X-189048Y58246D01*
X-189264Y58410D01*
X-189506Y58563D01*
X-189744Y58689D01*
X-189981Y58791D01*
X-190216Y58868D01*
X-190450Y58922D01*
X-190682Y58952D01*
X-190913Y58957D01*
X-191143Y58939D01*
X-191371Y58897D01*
X-191593Y58830D01*
X-191804Y58740D01*
X-192005Y58626D01*
X-192195Y58488D01*
X-192374Y58327D01*
X-192542Y58142D01*
X-192699Y57933D01*
X-192846Y57700D01*
X-193011Y57392D01*
X-193148Y57088D01*
X-193259Y56786D01*
X-193342Y56487D01*
X-193399Y56192D01*
X-193428Y55899D01*
X-193430Y55609D01*
X-193404Y55322D01*
X-193353Y55046D01*
X-193277Y54788D01*
X-193175Y54549D01*
X-193049Y54328D01*
X-192898Y54126D01*
X-192721Y53942D01*
X-192520Y53776D01*
X-192294Y53629D01*
X-192048Y53501D01*
X-191803Y53401D01*
X-191560Y53330D01*
X-191318Y53287D01*
X-191077Y53272D01*
G37*
%LPD*%
D10*
X-12314Y225425D02*
X-12932Y225116D01*
X-13542Y224792D01*
X-14145Y224454D01*
X-14739Y224101D01*
X-15324Y223733D01*
X-15900Y223351D01*
X-16466Y222955D01*
X-17022Y222546D01*
X-17569Y222122D01*
X-18104Y221686D01*
X-18629Y221237D01*
X-19143Y220775D01*
X-19646Y220301D01*
X-20136Y219814D01*
X-20615Y219316D01*
X-21081Y218806D01*
X-21535Y218284D01*
X-21975Y217752D01*
X-22403Y217210D01*
X-22817Y216656D01*
X-23218Y216093D01*
X-23604Y215521D01*
X-23977Y214939D01*
X-24335Y214348D01*
X-24679Y213748D01*
X-25008Y213141D01*
X-25322Y212525D01*
X-25620Y211902D01*
X-25904Y211272D01*
X-26172Y210635D01*
X-26424Y209992D01*
X-26660Y209343D01*
X-26881Y208688D01*
X-27085Y208028D01*
X-27274Y207363D01*
X-27446Y206694D01*
X-27601Y206020D01*
X-27740Y205344D01*
X-27862Y204664D01*
X-27968Y203981D01*
X-28057Y203295D01*
X-28129Y202608D01*
X-28185Y201920D01*
X-28223Y201230D01*
X-28245Y200539D01*
X-28250Y199848D01*
X-28237Y199157D01*
X-28208Y198467D01*
X-28162Y197777D01*
X-28100Y197089D01*
X-28020Y196403D01*
X-27924Y195719D01*
X-27811Y195037D01*
X-27681Y194358D01*
X-27535Y193683D01*
X-27372Y193012D01*
X-27193Y192344D01*
X-26997Y191681D01*
X-26786Y191024D01*
X-26558Y190371D01*
X-26315Y189725D01*
X-26056Y189084D01*
X-25781Y188450D01*
X-25491Y187823D01*
X-25185Y187203D01*
X-24865Y186591D01*
X-24529Y185987D01*
X-24179Y185391D01*
X-23815Y184804D01*
X-23436Y184226D01*
X-23043Y183658D01*
X-22637Y183099D01*
X-22217Y182551D01*
X-21783Y182012D01*
X-21337Y181485D01*
X-20878Y180969D01*
X-20406Y180464D01*
X-19922Y179971D01*
X-19426Y179489D01*
X-18919Y179020D01*
X-18400Y178564D01*
X-17870Y178120D01*
X-17330Y177690D01*
X-16779Y177273D01*
X-16218Y176869D01*
X-15647Y176479D01*
X-15067Y176104D01*
X-14479Y175742D01*
X-13881Y175395D01*
X-13275Y175063D01*
X-12661Y174746D01*
X-12040Y174444D01*
X-11411Y174157D01*
X-10776Y173886D01*
X-10134Y173630D01*
X-9486Y173390D01*
X-8832Y173166D01*
X-8173Y172958D01*
X-7509Y172766D01*
X-6841Y172591D01*
X-6169Y172432D01*
X-5493Y172289D01*
X-4813Y172163D01*
X-4131Y172054D01*
X-3446Y171961D01*
X-2759Y171885D01*
X-2071Y171826D01*
X-1381Y171784D01*
X-691Y171758D01*
X0Y171750D01*
X691Y171758D01*
X1381Y171784D01*
X2071Y171826D01*
X2759Y171885D01*
X3446Y171961D01*
X4131Y172054D01*
X4813Y172163D01*
X5493Y172289D01*
X6169Y172432D01*
X6841Y172591D01*
X7509Y172766D01*
X8173Y172958D01*
X8832Y173166D01*
X9486Y173390D01*
X10134Y173630D01*
X10776Y173886D01*
X11411Y174157D01*
X12040Y174444D01*
X12661Y174746D01*
X13275Y175063D01*
X13881Y175395D01*
X14479Y175742D01*
X15067Y176104D01*
X15647Y176479D01*
X16218Y176869D01*
X16779Y177273D01*
X17330Y177690D01*
X17870Y178120D01*
X18400Y178564D01*
X18919Y179020D01*
X19426Y179489D01*
X19922Y179971D01*
X20406Y180464D01*
X20878Y180969D01*
X21337Y181485D01*
X21783Y182012D01*
X22217Y182551D01*
X22637Y183099D01*
X23043Y183658D01*
X23436Y184226D01*
X23815Y184804D01*
X24179Y185391D01*
X24529Y185987D01*
X24865Y186591D01*
X25185Y187203D01*
X25491Y187823D01*
X25781Y188450D01*
X26056Y189084D01*
X26315Y189725D01*
X26558Y190371D01*
X26786Y191024D01*
X26997Y191681D01*
X27193Y192344D01*
X27372Y193012D01*
X27535Y193683D01*
X27681Y194358D01*
X27811Y195037D01*
X27924Y195719D01*
X28020Y196403D01*
X28100Y197089D01*
X28162Y197777D01*
X28208Y198467D01*
X28237Y199157D01*
X28250Y199848D01*
X28245Y200539D01*
X28223Y201230D01*
X28185Y201920D01*
X28129Y202608D01*
X28057Y203295D01*
X27968Y203981D01*
X27862Y204664D01*
X27740Y205344D01*
X27601Y206020D01*
X27446Y206694D01*
X27274Y207363D01*
X27085Y208028D01*
X26881Y208688D01*
X26660Y209343D01*
X26424Y209992D01*
X26172Y210635D01*
X25904Y211272D01*
X25620Y211902D01*
X25322Y212525D01*
X25008Y213141D01*
X24679Y213748D01*
X24335Y214348D01*
X23977Y214939D01*
X23604Y215521D01*
X23218Y216093D01*
X22817Y216656D01*
X22403Y217210D01*
X21975Y217752D01*
X21535Y218284D01*
X21081Y218806D01*
X20615Y219316D01*
X20136Y219814D01*
X19646Y220301D01*
X19143Y220775D01*
X18629Y221237D01*
X18104Y221686D01*
X17569Y222122D01*
X17022Y222546D01*
X16466Y222955D01*
X15900Y223351D01*
X15324Y223733D01*
X14739Y224101D01*
X14145Y224454D01*
X13542Y224792D01*
X12932Y225116D01*
X12314Y225425D01*
X-12314Y225425D01*
X-25946Y181554D02*
X-25946Y174054D01*
X-29696Y177804D02*
X-22196Y177804D01*
X148735Y85875D02*
X148397Y86478D01*
X148073Y87088D01*
X147765Y87707D01*
X147472Y88332D01*
X147194Y88965D01*
X146932Y89604D01*
X146686Y90250D01*
X146455Y90901D01*
X146241Y91558D01*
X146042Y92220D01*
X145860Y92887D01*
X145694Y93557D01*
X145545Y94232D01*
X145412Y94910D01*
X145296Y95591D01*
X145197Y96275D01*
X145114Y96961D01*
X145048Y97649D01*
X144999Y98338D01*
X144967Y99028D01*
X144951Y99719D01*
X144953Y100410D01*
X144971Y101101D01*
X145007Y101791D01*
X145059Y102480D01*
X145128Y103167D01*
X145214Y103853D01*
X145317Y104536D01*
X145436Y105217D01*
X145572Y105894D01*
X145724Y106568D01*
X145893Y107238D01*
X146078Y107904D01*
X146280Y108565D01*
X146497Y109221D01*
X146731Y109871D01*
X146980Y110515D01*
X147245Y111154D01*
X147526Y111785D01*
X147821Y112409D01*
X148133Y113026D01*
X148459Y113636D01*
X148800Y114237D01*
X149155Y114829D01*
X149525Y115413D01*
X149909Y115987D01*
X150307Y116552D01*
X150719Y117107D01*
X151144Y117652D01*
X151582Y118186D01*
X152033Y118709D01*
X152497Y119221D01*
X152973Y119722D01*
X153462Y120211D01*
X153962Y120687D01*
X154474Y121152D01*
X154997Y121603D01*
X155530Y122042D01*
X156075Y122468D01*
X156629Y122880D01*
X157194Y123278D01*
X157768Y123663D01*
X158351Y124033D01*
X158944Y124389D01*
X159544Y124730D01*
X160153Y125057D01*
X160770Y125368D01*
X161394Y125665D01*
X162025Y125946D01*
X162663Y126211D01*
X163308Y126461D01*
X163958Y126695D01*
X164613Y126913D01*
X165274Y127115D01*
X165940Y127301D01*
X166610Y127470D01*
X167283Y127623D01*
X167961Y127760D01*
X168641Y127880D01*
X169324Y127983D01*
X170010Y128069D01*
X170697Y128139D01*
X171386Y128192D01*
X172076Y128228D01*
X172767Y128247D01*
X173458Y128249D01*
X174149Y128234D01*
X174839Y128202D01*
X175528Y128154D01*
X176216Y128089D01*
X176902Y128006D01*
X177586Y127907D01*
X178267Y127792D01*
X178946Y127660D01*
X179620Y127511D01*
X180291Y127345D01*
X180958Y127164D01*
X181620Y126966D01*
X182277Y126752D01*
X182929Y126522D01*
X183574Y126276D01*
X184214Y126015D01*
X184847Y125737D01*
X185473Y125445D01*
X186091Y125137D01*
X186702Y124814D01*
X187305Y124477D01*
X187900Y124124D01*
X188485Y123758D01*
X189062Y123377D01*
X201376Y102048D02*
X201417Y101359D01*
X201442Y100668D01*
X201450Y99977D01*
X201441Y99286D01*
X201415Y98596D01*
X201372Y97906D01*
X201313Y97218D01*
X201236Y96531D01*
X201143Y95846D01*
X201033Y95164D01*
X200906Y94485D01*
X200763Y93809D01*
X200604Y93137D01*
X200428Y92468D01*
X200235Y91805D01*
X200027Y91146D01*
X199802Y90493D01*
X199562Y89845D01*
X199305Y89203D01*
X199034Y88568D01*
X198746Y87940D01*
X198444Y87318D01*
X198126Y86705D01*
X197793Y86099D01*
X197446Y85502D01*
X197084Y84913D01*
X196708Y84334D01*
X196318Y83763D01*
X195914Y83203D01*
X195496Y82652D01*
X195065Y82112D01*
X194621Y81583D01*
X194164Y81064D01*
X193695Y80557D01*
X193213Y80062D01*
X192720Y79578D01*
X192214Y79107D01*
X191698Y78648D01*
X191170Y78202D01*
X190631Y77769D01*
X190083Y77350D01*
X189524Y76943D01*
X188955Y76551D01*
X188377Y76173D01*
X187789Y75809D01*
X187193Y75459D01*
X186589Y75124D01*
X185976Y74804D01*
X185356Y74499D01*
X184729Y74210D01*
X184095Y73935D01*
X183454Y73677D01*
X182807Y73434D01*
X182155Y73207D01*
X181497Y72996D01*
X180834Y72801D01*
X180166Y72622D01*
X179495Y72460D01*
X178819Y72314D01*
X178140Y72185D01*
X177459Y72073D01*
X176774Y71977D01*
X176088Y71898D01*
X175400Y71836D01*
X174710Y71790D01*
X174020Y71762D01*
X173329Y71750D01*
X172638Y71756D01*
X171947Y71778D01*
X171258Y71817D01*
X170569Y71873D01*
X169882Y71946D01*
X169197Y72035D01*
X168514Y72141D01*
X167834Y72264D01*
X167157Y72404D01*
X166484Y72560D01*
X165815Y72732D01*
X165150Y72921D01*
X164490Y73126D01*
X163836Y73347D01*
X163187Y73584D01*
X162544Y73837D01*
X161907Y74105D01*
X161277Y74389D01*
X160654Y74689D01*
X160039Y75003D01*
X159432Y75332D01*
X158832Y75677D01*
X158242Y76035D01*
X157660Y76408D01*
X157088Y76795D01*
X156525Y77196D01*
X155972Y77611D01*
X155430Y78039D01*
X154898Y78480D01*
X154377Y78934D01*
X153868Y79401D01*
X153370Y79880D01*
X152884Y80371D01*
X152410Y80874D01*
X151948Y81388D01*
X151499Y81913D01*
X151063Y82449D01*
X150641Y82996D01*
X150232Y83553D01*
X149836Y84119D01*
X149455Y84696D01*
X149088Y85281D01*
X148735Y85875D01*
X189062Y123377D02*
X201376Y102048D01*
X144252Y113247D02*
X137757Y109497D01*
X139130Y114619D02*
X142880Y108124D01*
X148735Y-85875D02*
X149088Y-85281D01*
X149455Y-84696D01*
X149836Y-84119D01*
X150232Y-83553D01*
X150641Y-82996D01*
X151063Y-82449D01*
X151499Y-81913D01*
X151948Y-81388D01*
X152410Y-80874D01*
X152884Y-80371D01*
X153370Y-79880D01*
X153868Y-79401D01*
X154377Y-78934D01*
X154898Y-78480D01*
X155430Y-78039D01*
X155972Y-77611D01*
X156525Y-77196D01*
X157088Y-76795D01*
X157660Y-76408D01*
X158242Y-76035D01*
X158832Y-75676D01*
X159432Y-75332D01*
X160039Y-75003D01*
X160654Y-74689D01*
X161277Y-74389D01*
X161907Y-74105D01*
X162544Y-73837D01*
X163187Y-73584D01*
X163836Y-73347D01*
X164490Y-73126D01*
X165150Y-72921D01*
X165815Y-72732D01*
X166484Y-72560D01*
X167157Y-72404D01*
X167834Y-72264D01*
X168514Y-72141D01*
X169197Y-72035D01*
X169882Y-71946D01*
X170569Y-71873D01*
X171258Y-71817D01*
X171947Y-71778D01*
X172638Y-71756D01*
X173329Y-71750D01*
X174020Y-71762D01*
X174710Y-71790D01*
X175400Y-71836D01*
X176088Y-71898D01*
X176774Y-71977D01*
X177459Y-72073D01*
X178140Y-72185D01*
X178819Y-72314D01*
X179495Y-72460D01*
X180166Y-72622D01*
X180834Y-72801D01*
X181497Y-72996D01*
X182155Y-73207D01*
X182807Y-73434D01*
X183454Y-73677D01*
X184095Y-73935D01*
X184729Y-74210D01*
X185356Y-74499D01*
X185976Y-74804D01*
X186589Y-75124D01*
X187193Y-75459D01*
X187789Y-75809D01*
X188377Y-76173D01*
X188955Y-76551D01*
X189524Y-76943D01*
X190083Y-77350D01*
X190631Y-77769D01*
X191170Y-78202D01*
X191698Y-78648D01*
X192214Y-79107D01*
X192720Y-79578D01*
X193213Y-80062D01*
X193695Y-80557D01*
X194164Y-81064D01*
X194621Y-81583D01*
X195065Y-82112D01*
X195496Y-82652D01*
X195914Y-83203D01*
X196318Y-83763D01*
X196708Y-84334D01*
X197084Y-84913D01*
X197446Y-85502D01*
X197793Y-86099D01*
X198126Y-86705D01*
X198444Y-87318D01*
X198746Y-87940D01*
X199034Y-88568D01*
X199305Y-89203D01*
X199562Y-89845D01*
X199802Y-90493D01*
X200027Y-91146D01*
X200235Y-91805D01*
X200428Y-92469D01*
X200604Y-93137D01*
X200763Y-93809D01*
X200906Y-94485D01*
X201033Y-95164D01*
X201143Y-95846D01*
X201236Y-96531D01*
X201313Y-97218D01*
X201372Y-97906D01*
X201415Y-98596D01*
X201441Y-99286D01*
X201450Y-99977D01*
X201442Y-100668D01*
X201417Y-101359D01*
X201376Y-102048D01*
X189062Y-123377D02*
X188485Y-123758D01*
X187900Y-124124D01*
X187305Y-124477D01*
X186702Y-124814D01*
X186091Y-125137D01*
X185473Y-125445D01*
X184847Y-125737D01*
X184214Y-126015D01*
X183574Y-126276D01*
X182929Y-126522D01*
X182277Y-126752D01*
X181620Y-126966D01*
X180958Y-127164D01*
X180291Y-127345D01*
X179620Y-127511D01*
X178946Y-127660D01*
X178267Y-127792D01*
X177586Y-127907D01*
X176902Y-128006D01*
X176216Y-128089D01*
X175528Y-128154D01*
X174839Y-128202D01*
X174149Y-128234D01*
X173458Y-128249D01*
X172767Y-128247D01*
X172076Y-128228D01*
X171386Y-128192D01*
X170697Y-128139D01*
X170010Y-128069D01*
X169324Y-127983D01*
X168641Y-127880D01*
X167961Y-127760D01*
X167283Y-127623D01*
X166610Y-127470D01*
X165940Y-127301D01*
X165274Y-127115D01*
X164613Y-126913D01*
X163958Y-126695D01*
X163308Y-126461D01*
X162663Y-126211D01*
X162025Y-125946D01*
X161394Y-125665D01*
X160770Y-125368D01*
X160153Y-125057D01*
X159544Y-124730D01*
X158944Y-124389D01*
X158351Y-124033D01*
X157768Y-123663D01*
X157194Y-123278D01*
X156629Y-122880D01*
X156075Y-122468D01*
X155530Y-122042D01*
X154997Y-121603D01*
X154474Y-121152D01*
X153962Y-120687D01*
X153462Y-120211D01*
X152973Y-119722D01*
X152497Y-119221D01*
X152033Y-118709D01*
X151582Y-118186D01*
X151144Y-117652D01*
X150719Y-117107D01*
X150307Y-116552D01*
X149909Y-115987D01*
X149525Y-115413D01*
X149155Y-114829D01*
X148800Y-114237D01*
X148459Y-113636D01*
X148133Y-113026D01*
X147821Y-112409D01*
X147526Y-111785D01*
X147245Y-111154D01*
X146980Y-110515D01*
X146731Y-109871D01*
X146497Y-109221D01*
X146280Y-108565D01*
X146078Y-107904D01*
X145893Y-107238D01*
X145724Y-106568D01*
X145572Y-105894D01*
X145436Y-105217D01*
X145317Y-104536D01*
X145214Y-103853D01*
X145128Y-103167D01*
X145059Y-102480D01*
X145007Y-101791D01*
X144971Y-101101D01*
X144953Y-100410D01*
X144951Y-99719D01*
X144967Y-99028D01*
X144999Y-98338D01*
X145048Y-97649D01*
X145114Y-96961D01*
X145197Y-96275D01*
X145296Y-95591D01*
X145412Y-94910D01*
X145545Y-94232D01*
X145694Y-93557D01*
X145860Y-92887D01*
X146042Y-92220D01*
X146241Y-91558D01*
X146455Y-90901D01*
X146686Y-90250D01*
X146932Y-89604D01*
X147194Y-88965D01*
X147472Y-88332D01*
X147765Y-87707D01*
X148073Y-87088D01*
X148397Y-86478D01*
X148735Y-85875D01*
X201376Y-102048D02*
X189062Y-123377D01*
X170198Y-68307D02*
X163703Y-64557D01*
X168826Y-63185D02*
X165076Y-69680D01*
X0Y-171750D02*
X691Y-171758D01*
X1381Y-171784D01*
X2071Y-171826D01*
X2759Y-171885D01*
X3446Y-171961D01*
X4131Y-172054D01*
X4813Y-172163D01*
X5493Y-172289D01*
X6169Y-172432D01*
X6841Y-172591D01*
X7509Y-172766D01*
X8173Y-172958D01*
X8832Y-173166D01*
X9486Y-173390D01*
X10134Y-173630D01*
X10776Y-173886D01*
X11411Y-174157D01*
X12040Y-174444D01*
X12661Y-174746D01*
X13275Y-175063D01*
X13881Y-175395D01*
X14479Y-175742D01*
X15067Y-176104D01*
X15647Y-176479D01*
X16218Y-176869D01*
X16779Y-177273D01*
X17330Y-177690D01*
X17870Y-178120D01*
X18400Y-178564D01*
X18919Y-179020D01*
X19426Y-179489D01*
X19922Y-179971D01*
X20406Y-180464D01*
X20878Y-180969D01*
X21337Y-181485D01*
X21783Y-182012D01*
X22217Y-182551D01*
X22637Y-183099D01*
X23043Y-183658D01*
X23436Y-184226D01*
X23815Y-184804D01*
X24179Y-185391D01*
X24529Y-185987D01*
X24865Y-186591D01*
X25185Y-187203D01*
X25491Y-187823D01*
X25781Y-188450D01*
X26056Y-189084D01*
X26315Y-189725D01*
X26558Y-190371D01*
X26786Y-191024D01*
X26997Y-191681D01*
X27193Y-192344D01*
X27372Y-193012D01*
X27535Y-193683D01*
X27681Y-194358D01*
X27811Y-195037D01*
X27924Y-195719D01*
X28020Y-196403D01*
X28100Y-197089D01*
X28162Y-197777D01*
X28208Y-198467D01*
X28237Y-199157D01*
X28250Y-199848D01*
X28245Y-200539D01*
X28223Y-201230D01*
X28185Y-201920D01*
X28129Y-202608D01*
X28057Y-203295D01*
X27968Y-203981D01*
X27862Y-204664D01*
X27740Y-205344D01*
X27601Y-206020D01*
X27446Y-206694D01*
X27274Y-207363D01*
X27085Y-208028D01*
X26881Y-208688D01*
X26660Y-209343D01*
X26424Y-209992D01*
X26172Y-210635D01*
X25904Y-211272D01*
X25620Y-211902D01*
X25322Y-212525D01*
X25008Y-213141D01*
X24679Y-213748D01*
X24335Y-214348D01*
X23977Y-214939D01*
X23604Y-215521D01*
X23218Y-216093D01*
X22817Y-216656D01*
X22403Y-217210D01*
X21975Y-217752D01*
X21535Y-218284D01*
X21081Y-218806D01*
X20615Y-219316D01*
X20136Y-219814D01*
X19646Y-220301D01*
X19143Y-220775D01*
X18629Y-221237D01*
X18104Y-221686D01*
X17569Y-222122D01*
X17022Y-222546D01*
X16466Y-222955D01*
X15900Y-223351D01*
X15324Y-223733D01*
X14739Y-224101D01*
X14145Y-224454D01*
X13542Y-224792D01*
X12932Y-225116D01*
X12314Y-225425D01*
X-12314Y-225425D02*
X-12932Y-225116D01*
X-13542Y-224792D01*
X-14145Y-224454D01*
X-14739Y-224101D01*
X-15324Y-223733D01*
X-15900Y-223351D01*
X-16466Y-222955D01*
X-17022Y-222546D01*
X-17569Y-222122D01*
X-18104Y-221686D01*
X-18629Y-221237D01*
X-19143Y-220775D01*
X-19646Y-220301D01*
X-20136Y-219814D01*
X-20615Y-219316D01*
X-21081Y-218806D01*
X-21535Y-218284D01*
X-21975Y-217752D01*
X-22403Y-217210D01*
X-22817Y-216656D01*
X-23218Y-216093D01*
X-23604Y-215521D01*
X-23977Y-214939D01*
X-24335Y-214348D01*
X-24679Y-213748D01*
X-25008Y-213141D01*
X-25322Y-212525D01*
X-25620Y-211902D01*
X-25904Y-211272D01*
X-26172Y-210635D01*
X-26424Y-209992D01*
X-26660Y-209343D01*
X-26881Y-208688D01*
X-27085Y-208028D01*
X-27274Y-207363D01*
X-27446Y-206694D01*
X-27601Y-206020D01*
X-27740Y-205344D01*
X-27862Y-204664D01*
X-27968Y-203981D01*
X-28057Y-203295D01*
X-28129Y-202608D01*
X-28185Y-201920D01*
X-28223Y-201230D01*
X-28245Y-200539D01*
X-28250Y-199848D01*
X-28237Y-199157D01*
X-28208Y-198467D01*
X-28162Y-197777D01*
X-28100Y-197089D01*
X-28020Y-196403D01*
X-27924Y-195719D01*
X-27811Y-195037D01*
X-27681Y-194358D01*
X-27535Y-193683D01*
X-27372Y-193012D01*
X-27193Y-192344D01*
X-26997Y-191681D01*
X-26786Y-191024D01*
X-26558Y-190371D01*
X-26315Y-189725D01*
X-26056Y-189084D01*
X-25781Y-188450D01*
X-25491Y-187823D01*
X-25185Y-187203D01*
X-24865Y-186591D01*
X-24529Y-185987D01*
X-24179Y-185391D01*
X-23815Y-184804D01*
X-23436Y-184226D01*
X-23043Y-183658D01*
X-22637Y-183099D01*
X-22217Y-182551D01*
X-21783Y-182012D01*
X-21337Y-181485D01*
X-20878Y-180969D01*
X-20406Y-180464D01*
X-19922Y-179971D01*
X-19426Y-179489D01*
X-18919Y-179020D01*
X-18400Y-178564D01*
X-17870Y-178120D01*
X-17330Y-177690D01*
X-16779Y-177273D01*
X-16218Y-176869D01*
X-15647Y-176479D01*
X-15067Y-176104D01*
X-14479Y-175742D01*
X-13881Y-175395D01*
X-13275Y-175063D01*
X-12661Y-174746D01*
X-12040Y-174444D01*
X-11411Y-174157D01*
X-10776Y-173886D01*
X-10134Y-173630D01*
X-9486Y-173390D01*
X-8832Y-173166D01*
X-8173Y-172958D01*
X-7509Y-172766D01*
X-6841Y-172591D01*
X-6169Y-172432D01*
X-5493Y-172289D01*
X-4813Y-172163D01*
X-4131Y-172054D01*
X-3446Y-171961D01*
X-2759Y-171885D01*
X-2071Y-171826D01*
X-1381Y-171784D01*
X-691Y-171758D01*
X0Y-171750D01*
X12314Y-225425D02*
X-12314Y-225425D01*
X25946Y-181554D02*
X25946Y-174054D01*
X29696Y-177804D02*
X22196Y-177804D01*
X-148735Y-85875D02*
X-148397Y-86478D01*
X-148073Y-87088D01*
X-147765Y-87707D01*
X-147472Y-88332D01*
X-147194Y-88965D01*
X-146932Y-89604D01*
X-146686Y-90250D01*
X-146455Y-90901D01*
X-146241Y-91558D01*
X-146042Y-92220D01*
X-145860Y-92887D01*
X-145694Y-93557D01*
X-145545Y-94232D01*
X-145412Y-94910D01*
X-145296Y-95591D01*
X-145197Y-96275D01*
X-145114Y-96961D01*
X-145048Y-97649D01*
X-144999Y-98338D01*
X-144967Y-99028D01*
X-144951Y-99719D01*
X-144953Y-100410D01*
X-144971Y-101101D01*
X-145007Y-101791D01*
X-145059Y-102480D01*
X-145128Y-103167D01*
X-145214Y-103853D01*
X-145317Y-104536D01*
X-145436Y-105217D01*
X-145572Y-105894D01*
X-145724Y-106568D01*
X-145893Y-107238D01*
X-146078Y-107904D01*
X-146280Y-108565D01*
X-146497Y-109221D01*
X-146731Y-109871D01*
X-146980Y-110515D01*
X-147245Y-111154D01*
X-147526Y-111785D01*
X-147821Y-112409D01*
X-148133Y-113026D01*
X-148459Y-113636D01*
X-148800Y-114237D01*
X-149155Y-114829D01*
X-149525Y-115413D01*
X-149909Y-115987D01*
X-150307Y-116552D01*
X-150719Y-117107D01*
X-151144Y-117652D01*
X-151582Y-118186D01*
X-152033Y-118709D01*
X-152497Y-119221D01*
X-152973Y-119722D01*
X-153462Y-120211D01*
X-153962Y-120687D01*
X-154474Y-121152D01*
X-154997Y-121603D01*
X-155530Y-122042D01*
X-156075Y-122468D01*
X-156629Y-122880D01*
X-157194Y-123278D01*
X-157768Y-123663D01*
X-158351Y-124033D01*
X-158944Y-124389D01*
X-159544Y-124730D01*
X-160153Y-125057D01*
X-160770Y-125368D01*
X-161394Y-125665D01*
X-162025Y-125946D01*
X-162663Y-126211D01*
X-163308Y-126461D01*
X-163958Y-126695D01*
X-164613Y-126913D01*
X-165274Y-127115D01*
X-165940Y-127301D01*
X-166610Y-127470D01*
X-167283Y-127623D01*
X-167961Y-127760D01*
X-168641Y-127880D01*
X-169324Y-127983D01*
X-170010Y-128069D01*
X-170697Y-128139D01*
X-171386Y-128192D01*
X-172076Y-128228D01*
X-172767Y-128247D01*
X-173458Y-128249D01*
X-174149Y-128234D01*
X-174839Y-128202D01*
X-175528Y-128154D01*
X-176216Y-128089D01*
X-176902Y-128006D01*
X-177586Y-127907D01*
X-178267Y-127792D01*
X-178946Y-127660D01*
X-179620Y-127511D01*
X-180291Y-127345D01*
X-180958Y-127164D01*
X-181620Y-126966D01*
X-182277Y-126752D01*
X-182929Y-126522D01*
X-183574Y-126276D01*
X-184214Y-126015D01*
X-184847Y-125737D01*
X-185473Y-125445D01*
X-186091Y-125137D01*
X-186702Y-124814D01*
X-187305Y-124477D01*
X-187900Y-124124D01*
X-188485Y-123758D01*
X-189062Y-123377D01*
X-201376Y-102048D02*
X-201417Y-101359D01*
X-201442Y-100668D01*
X-201450Y-99977D01*
X-201441Y-99286D01*
X-201415Y-98596D01*
X-201372Y-97906D01*
X-201313Y-97218D01*
X-201236Y-96531D01*
X-201143Y-95846D01*
X-201033Y-95164D01*
X-200906Y-94485D01*
X-200763Y-93809D01*
X-200604Y-93137D01*
X-200428Y-92468D01*
X-200235Y-91805D01*
X-200027Y-91146D01*
X-199802Y-90493D01*
X-199562Y-89845D01*
X-199305Y-89203D01*
X-199034Y-88568D01*
X-198746Y-87940D01*
X-198444Y-87318D01*
X-198126Y-86705D01*
X-197793Y-86099D01*
X-197446Y-85502D01*
X-197084Y-84913D01*
X-196708Y-84334D01*
X-196318Y-83763D01*
X-195914Y-83203D01*
X-195496Y-82652D01*
X-195065Y-82112D01*
X-194621Y-81583D01*
X-194164Y-81064D01*
X-193695Y-80557D01*
X-193213Y-80062D01*
X-192720Y-79578D01*
X-192214Y-79107D01*
X-191698Y-78648D01*
X-191170Y-78202D01*
X-190631Y-77769D01*
X-190083Y-77350D01*
X-189524Y-76943D01*
X-188955Y-76551D01*
X-188377Y-76173D01*
X-187789Y-75809D01*
X-187193Y-75459D01*
X-186589Y-75124D01*
X-185976Y-74804D01*
X-185356Y-74499D01*
X-184729Y-74210D01*
X-184095Y-73935D01*
X-183454Y-73677D01*
X-182807Y-73434D01*
X-182155Y-73207D01*
X-181497Y-72996D01*
X-180834Y-72801D01*
X-180166Y-72622D01*
X-179495Y-72460D01*
X-178819Y-72314D01*
X-178140Y-72185D01*
X-177459Y-72073D01*
X-176774Y-71977D01*
X-176088Y-71898D01*
X-175400Y-71836D01*
X-174710Y-71790D01*
X-174020Y-71762D01*
X-173329Y-71750D01*
X-172638Y-71756D01*
X-171947Y-71778D01*
X-171258Y-71817D01*
X-170569Y-71873D01*
X-169882Y-71946D01*
X-169197Y-72035D01*
X-168514Y-72141D01*
X-167834Y-72264D01*
X-167157Y-72404D01*
X-166484Y-72560D01*
X-165815Y-72732D01*
X-165150Y-72921D01*
X-164490Y-73126D01*
X-163836Y-73347D01*
X-163187Y-73584D01*
X-162544Y-73837D01*
X-161907Y-74105D01*
X-161277Y-74389D01*
X-160654Y-74689D01*
X-160039Y-75003D01*
X-159432Y-75332D01*
X-158832Y-75677D01*
X-158242Y-76035D01*
X-157660Y-76408D01*
X-157088Y-76795D01*
X-156525Y-77196D01*
X-155972Y-77611D01*
X-155430Y-78039D01*
X-154898Y-78480D01*
X-154377Y-78934D01*
X-153868Y-79401D01*
X-153370Y-79880D01*
X-152884Y-80371D01*
X-152410Y-80874D01*
X-151948Y-81388D01*
X-151499Y-81913D01*
X-151063Y-82449D01*
X-150641Y-82996D01*
X-150232Y-83553D01*
X-149836Y-84119D01*
X-149455Y-84696D01*
X-149088Y-85281D01*
X-148735Y-85875D01*
X-189062Y-123377D02*
X-201376Y-102048D01*
X-144252Y-113247D02*
X-137757Y-109497D01*
X-139130Y-114619D02*
X-142880Y-108124D01*
X-148735Y85875D02*
X-149088Y85281D01*
X-149455Y84696D01*
X-149836Y84119D01*
X-150232Y83553D01*
X-150641Y82996D01*
X-151063Y82449D01*
X-151499Y81913D01*
X-151948Y81388D01*
X-152410Y80874D01*
X-152884Y80371D01*
X-153370Y79880D01*
X-153868Y79401D01*
X-154377Y78934D01*
X-154898Y78480D01*
X-155430Y78039D01*
X-155972Y77611D01*
X-156525Y77196D01*
X-157088Y76795D01*
X-157660Y76408D01*
X-158242Y76035D01*
X-158832Y75677D01*
X-159432Y75332D01*
X-160039Y75003D01*
X-160654Y74689D01*
X-161277Y74389D01*
X-161907Y74105D01*
X-162544Y73837D01*
X-163187Y73584D01*
X-163836Y73347D01*
X-164490Y73126D01*
X-165150Y72921D01*
X-165815Y72732D01*
X-166484Y72560D01*
X-167157Y72404D01*
X-167834Y72264D01*
X-168514Y72141D01*
X-169197Y72035D01*
X-169882Y71946D01*
X-170569Y71873D01*
X-171258Y71817D01*
X-171947Y71778D01*
X-172638Y71756D01*
X-173329Y71750D01*
X-174020Y71762D01*
X-174710Y71790D01*
X-175400Y71836D01*
X-176088Y71898D01*
X-176774Y71977D01*
X-177459Y72073D01*
X-178140Y72185D01*
X-178819Y72314D01*
X-179495Y72460D01*
X-180166Y72622D01*
X-180834Y72801D01*
X-181497Y72996D01*
X-182155Y73207D01*
X-182807Y73434D01*
X-183454Y73677D01*
X-184095Y73935D01*
X-184729Y74210D01*
X-185356Y74499D01*
X-185976Y74804D01*
X-186589Y75124D01*
X-187193Y75459D01*
X-187789Y75809D01*
X-188377Y76173D01*
X-188955Y76551D01*
X-189524Y76943D01*
X-190083Y77350D01*
X-190631Y77769D01*
X-191170Y78202D01*
X-191698Y78648D01*
X-192214Y79107D01*
X-192720Y79578D01*
X-193213Y80062D01*
X-193695Y80557D01*
X-194164Y81064D01*
X-194621Y81583D01*
X-195065Y82112D01*
X-195496Y82652D01*
X-195914Y83203D01*
X-196318Y83763D01*
X-196708Y84334D01*
X-197084Y84913D01*
X-197446Y85502D01*
X-197793Y86099D01*
X-198126Y86705D01*
X-198444Y87318D01*
X-198746Y87940D01*
X-199034Y88568D01*
X-199305Y89203D01*
X-199562Y89845D01*
X-199802Y90493D01*
X-200027Y91146D01*
X-200235Y91805D01*
X-200428Y92468D01*
X-200604Y93137D01*
X-200763Y93809D01*
X-200906Y94485D01*
X-201033Y95164D01*
X-201143Y95846D01*
X-201236Y96531D01*
X-201313Y97218D01*
X-201372Y97906D01*
X-201415Y98596D01*
X-201441Y99286D01*
X-201450Y99977D01*
X-201442Y100668D01*
X-201417Y101359D01*
X-201376Y102048D01*
X-189062Y123377D02*
X-188485Y123758D01*
X-187900Y124124D01*
X-187305Y124477D01*
X-186702Y124814D01*
X-186091Y125137D01*
X-185473Y125445D01*
X-184847Y125737D01*
X-184214Y126015D01*
X-183574Y126276D01*
X-182929Y126522D01*
X-182277Y126752D01*
X-181620Y126966D01*
X-180958Y127164D01*
X-180291Y127345D01*
X-179620Y127511D01*
X-178946Y127660D01*
X-178267Y127792D01*
X-177586Y127907D01*
X-176902Y128006D01*
X-176216Y128089D01*
X-175528Y128154D01*
X-174839Y128202D01*
X-174149Y128234D01*
X-173458Y128249D01*
X-172767Y128247D01*
X-172076Y128228D01*
X-171386Y128192D01*
X-170697Y128139D01*
X-170010Y128069D01*
X-169324Y127983D01*
X-168641Y127880D01*
X-167961Y127760D01*
X-167283Y127623D01*
X-166610Y127470D01*
X-165940Y127301D01*
X-165274Y127115D01*
X-164613Y126913D01*
X-163958Y126695D01*
X-163308Y126461D01*
X-162663Y126211D01*
X-162025Y125946D01*
X-161394Y125665D01*
X-160770Y125368D01*
X-160153Y125057D01*
X-159544Y124730D01*
X-158944Y124389D01*
X-158351Y124033D01*
X-157768Y123663D01*
X-157194Y123278D01*
X-156629Y122880D01*
X-156075Y122468D01*
X-155530Y122042D01*
X-154997Y121603D01*
X-154474Y121152D01*
X-153962Y120687D01*
X-153462Y120211D01*
X-152973Y119722D01*
X-152497Y119221D01*
X-152033Y118709D01*
X-151582Y118186D01*
X-151144Y117652D01*
X-150719Y117107D01*
X-150307Y116552D01*
X-149909Y115987D01*
X-149525Y115413D01*
X-149155Y114829D01*
X-148800Y114237D01*
X-148459Y113636D01*
X-148133Y113026D01*
X-147821Y112409D01*
X-147526Y111785D01*
X-147245Y111154D01*
X-146980Y110515D01*
X-146731Y109871D01*
X-146497Y109221D01*
X-146280Y108565D01*
X-146078Y107904D01*
X-145893Y107238D01*
X-145724Y106568D01*
X-145572Y105894D01*
X-145436Y105217D01*
X-145317Y104536D01*
X-145214Y103853D01*
X-145128Y103167D01*
X-145059Y102480D01*
X-145007Y101791D01*
X-144971Y101101D01*
X-144953Y100410D01*
X-144951Y99719D01*
X-144967Y99028D01*
X-144999Y98338D01*
X-145048Y97649D01*
X-145114Y96961D01*
X-145197Y96275D01*
X-145296Y95591D01*
X-145412Y94910D01*
X-145545Y94232D01*
X-145694Y93557D01*
X-145860Y92887D01*
X-146042Y92220D01*
X-146241Y91558D01*
X-146455Y90901D01*
X-146686Y90250D01*
X-146932Y89604D01*
X-147194Y88965D01*
X-147472Y88332D01*
X-147765Y87707D01*
X-148073Y87088D01*
X-148397Y86478D01*
X-148735Y85875D01*
X-201376Y102048D02*
X-189062Y123377D01*
X-170198Y68307D02*
X-163703Y64557D01*
X-168826Y63185D02*
X-165076Y69680D01*
M02*
