G04 EAGLE Gerber RS-274X export*
G75*
%MOMM*%
%FSLAX34Y34*%
%LPD*%
%INSilkscreen Bottom*%
%IPPOS*%
%AMOC8*
5,1,8,0,0,1.08239X$1,22.5*%
G01*
G04 Define Apertures*
%ADD10C,0.200000*%
G36*
X-140709Y-31313D02*
X-153050Y-31313D01*
X-153050Y-29640D01*
X-148242Y-29640D01*
X-148242Y-26014D01*
X-148225Y-25536D01*
X-148177Y-25084D01*
X-148096Y-24658D01*
X-147983Y-24257D01*
X-147838Y-23882D01*
X-147660Y-23532D01*
X-147450Y-23208D01*
X-147208Y-22909D01*
X-146938Y-22641D01*
X-146646Y-22409D01*
X-146332Y-22213D01*
X-145995Y-22052D01*
X-145636Y-21927D01*
X-145254Y-21838D01*
X-144850Y-21784D01*
X-144423Y-21766D01*
X-143993Y-21784D01*
X-143588Y-21837D01*
X-143208Y-21926D01*
X-142853Y-22051D01*
X-142523Y-22211D01*
X-142217Y-22407D01*
X-141937Y-22638D01*
X-141681Y-22905D01*
X-141454Y-23204D01*
X-141256Y-23533D01*
X-141089Y-23891D01*
X-140952Y-24278D01*
X-140846Y-24694D01*
X-140770Y-25140D01*
X-140724Y-25615D01*
X-140709Y-26119D01*
X-140709Y-31313D01*
G37*
%LPC*%
G36*
X-142049Y-29640D02*
X-142049Y-26321D01*
X-142059Y-25973D01*
X-142087Y-25647D01*
X-142133Y-25344D01*
X-142199Y-25064D01*
X-142283Y-24806D01*
X-142386Y-24570D01*
X-142507Y-24357D01*
X-142647Y-24166D01*
X-142806Y-23998D01*
X-142983Y-23852D01*
X-143179Y-23728D01*
X-143394Y-23627D01*
X-143628Y-23549D01*
X-143880Y-23493D01*
X-144151Y-23459D01*
X-144440Y-23448D01*
X-144741Y-23459D01*
X-145021Y-23492D01*
X-145283Y-23546D01*
X-145525Y-23623D01*
X-145747Y-23722D01*
X-145951Y-23842D01*
X-146135Y-23984D01*
X-146299Y-24148D01*
X-146445Y-24335D01*
X-146570Y-24543D01*
X-146677Y-24773D01*
X-146764Y-25024D01*
X-146832Y-25298D01*
X-146880Y-25594D01*
X-146909Y-25911D01*
X-146919Y-26251D01*
X-146919Y-29640D01*
X-142049Y-29640D01*
G37*
%LPD*%
G36*
X-151710Y-19449D02*
X-153050Y-19449D01*
X-153050Y-11716D01*
X-151710Y-11716D01*
X-151710Y-14720D01*
X-140709Y-14720D01*
X-140709Y-16174D01*
X-142715Y-19090D01*
X-144204Y-19090D01*
X-142216Y-16305D01*
X-151710Y-16305D01*
X-151710Y-19449D01*
G37*
G36*
X-149985Y-41473D02*
X-150377Y-41390D01*
X-150744Y-41286D01*
X-151086Y-41163D01*
X-151402Y-41020D01*
X-151693Y-40857D01*
X-151959Y-40674D01*
X-152200Y-40472D01*
X-152415Y-40249D01*
X-152605Y-40006D01*
X-152769Y-39744D01*
X-152909Y-39461D01*
X-153023Y-39159D01*
X-153111Y-38837D01*
X-153175Y-38495D01*
X-153213Y-38132D01*
X-153225Y-37751D01*
X-153209Y-37339D01*
X-153161Y-36950D01*
X-153080Y-36584D01*
X-152968Y-36240D01*
X-152823Y-35918D01*
X-152646Y-35619D01*
X-152437Y-35342D01*
X-152196Y-35088D01*
X-151927Y-34860D01*
X-151634Y-34663D01*
X-151316Y-34495D01*
X-150975Y-34359D01*
X-150610Y-34252D01*
X-150221Y-34176D01*
X-149808Y-34131D01*
X-149371Y-34116D01*
X-140709Y-34116D01*
X-140709Y-38153D01*
X-142076Y-38153D01*
X-142076Y-35780D01*
X-149406Y-35780D01*
X-149700Y-35788D01*
X-149974Y-35813D01*
X-150231Y-35854D01*
X-150470Y-35911D01*
X-150690Y-35985D01*
X-150892Y-36075D01*
X-151076Y-36182D01*
X-151241Y-36305D01*
X-151388Y-36443D01*
X-151515Y-36592D01*
X-151623Y-36754D01*
X-151711Y-36927D01*
X-151780Y-37113D01*
X-151828Y-37310D01*
X-151858Y-37520D01*
X-151868Y-37742D01*
X-151859Y-37945D01*
X-151832Y-38140D01*
X-151788Y-38326D01*
X-151725Y-38504D01*
X-151645Y-38672D01*
X-151547Y-38832D01*
X-151432Y-38983D01*
X-151298Y-39126D01*
X-151149Y-39257D01*
X-150986Y-39377D01*
X-150809Y-39484D01*
X-150617Y-39579D01*
X-150412Y-39661D01*
X-150193Y-39732D01*
X-149960Y-39789D01*
X-149713Y-39835D01*
X-149985Y-41473D01*
G37*
D10*
X-135000Y76300D02*
X-135000Y-128900D01*
X-107600Y-128900D01*
X-107600Y76300D01*
X-135000Y76300D01*
M02*
