G04 EAGLE Gerber RS-274X export*
G75*
%MOMM*%
%FSLAX34Y34*%
%LPD*%
%INTop Copper*%
%IPPOS*%
%AMOC8*
5,1,8,0,0,1.08239X$1,22.5*%
G01*
G04 Define Apertures*
%ADD10R,0.300000X1.800000*%
%ADD11R,4.360000X4.110000*%
%ADD12C,0.889000*%
%ADD13C,1.100000*%
%ADD14R,1.100000X1.000000*%
%ADD15R,0.850000X0.900000*%
%ADD16P,1.64956X8X112.5*%
%ADD17R,0.600000X0.600000*%
%ADD18P,1.64956X8X22.5*%
%ADD19C,0.152400*%
%ADD20C,0.756400*%
D10*
X339050Y437200D03*
X345550Y437200D03*
X352050Y437200D03*
X358550Y437200D03*
X365050Y437200D03*
X371550Y437200D03*
X378050Y437200D03*
X384550Y437200D03*
X391050Y437200D03*
X397550Y437200D03*
X404050Y437200D03*
X410550Y437200D03*
X417050Y437200D03*
X423550Y437200D03*
X430050Y437200D03*
X436550Y437200D03*
X436550Y511200D03*
X430050Y511200D03*
X423550Y511200D03*
X417050Y511200D03*
X410550Y511200D03*
X404050Y511200D03*
X397550Y511200D03*
X391050Y511200D03*
X384550Y511200D03*
X378050Y511200D03*
X371550Y511200D03*
X365050Y511200D03*
X358550Y511200D03*
X352050Y511200D03*
X345550Y511200D03*
X339050Y511200D03*
D11*
X387800Y474200D03*
D12*
X381300Y467700D03*
X381300Y454700D03*
X381300Y480700D03*
X381300Y493700D03*
X394300Y493700D03*
X394300Y480700D03*
X394300Y467700D03*
X394300Y454700D03*
X407300Y454700D03*
X407300Y467700D03*
X420300Y454700D03*
X433300Y454700D03*
X368300Y454700D03*
X355300Y454700D03*
X342300Y454700D03*
X342300Y467700D03*
X342300Y480700D03*
X342300Y493700D03*
X355300Y493700D03*
X355300Y480700D03*
X355300Y467700D03*
X368300Y467700D03*
X368300Y480700D03*
X368300Y493700D03*
X407300Y493700D03*
X407300Y480700D03*
X420300Y480700D03*
X420300Y467700D03*
X433300Y467700D03*
X433300Y480700D03*
X420300Y493700D03*
X433300Y493700D03*
D13*
X288200Y201340D02*
X261200Y201340D01*
X288200Y201340D02*
X288200Y190340D01*
X261200Y190340D01*
X261200Y201340D01*
X261200Y200790D02*
X288200Y200790D01*
X94400Y201340D02*
X67400Y201340D01*
X94400Y201340D02*
X94400Y190340D01*
X67400Y190340D01*
X67400Y201340D01*
X67400Y200790D02*
X94400Y200790D01*
X94400Y252140D02*
X67400Y252140D01*
X94400Y252140D02*
X94400Y241140D01*
X67400Y241140D01*
X67400Y252140D01*
X67400Y251590D02*
X94400Y251590D01*
X197700Y670640D02*
X197700Y697640D01*
X208700Y697640D01*
X208700Y670640D01*
X197700Y670640D01*
X197700Y681090D02*
X208700Y681090D01*
X208700Y691540D02*
X197700Y691540D01*
X172300Y697640D02*
X172300Y670640D01*
X172300Y697640D02*
X183300Y697640D01*
X183300Y670640D01*
X172300Y670640D01*
X172300Y681090D02*
X183300Y681090D01*
X183300Y691540D02*
X172300Y691540D01*
X261200Y226740D02*
X288200Y226740D01*
X288200Y215740D01*
X261200Y215740D01*
X261200Y226740D01*
X261200Y226190D02*
X288200Y226190D01*
X288200Y277540D02*
X261200Y277540D01*
X288200Y277540D02*
X288200Y266540D01*
X261200Y266540D01*
X261200Y277540D01*
X261200Y276990D02*
X288200Y276990D01*
X288200Y302940D02*
X261200Y302940D01*
X288200Y302940D02*
X288200Y291940D01*
X261200Y291940D01*
X261200Y302940D01*
X261200Y302390D02*
X288200Y302390D01*
X288200Y328340D02*
X261200Y328340D01*
X288200Y328340D02*
X288200Y317340D01*
X261200Y317340D01*
X261200Y328340D01*
X261200Y327790D02*
X288200Y327790D01*
X288200Y353740D02*
X261200Y353740D01*
X288200Y353740D02*
X288200Y342740D01*
X261200Y342740D01*
X261200Y353740D01*
X261200Y353190D02*
X288200Y353190D01*
X288200Y404540D02*
X261200Y404540D01*
X288200Y404540D02*
X288200Y393540D01*
X261200Y393540D01*
X261200Y404540D01*
X261200Y403990D02*
X288200Y403990D01*
X288200Y429940D02*
X261200Y429940D01*
X288200Y429940D02*
X288200Y418940D01*
X261200Y418940D01*
X261200Y429940D01*
X261200Y429390D02*
X288200Y429390D01*
X288200Y455340D02*
X261200Y455340D01*
X288200Y455340D02*
X288200Y444340D01*
X261200Y444340D01*
X261200Y455340D01*
X261200Y454790D02*
X288200Y454790D01*
X288200Y480740D02*
X261200Y480740D01*
X288200Y480740D02*
X288200Y469740D01*
X261200Y469740D01*
X261200Y480740D01*
X261200Y480190D02*
X288200Y480190D01*
X288200Y531540D02*
X261200Y531540D01*
X288200Y531540D02*
X288200Y520540D01*
X261200Y520540D01*
X261200Y531540D01*
X261200Y530990D02*
X288200Y530990D01*
X288200Y556940D02*
X261200Y556940D01*
X288200Y556940D02*
X288200Y545940D01*
X261200Y545940D01*
X261200Y556940D01*
X261200Y556390D02*
X288200Y556390D01*
X288200Y582340D02*
X261200Y582340D01*
X288200Y582340D02*
X288200Y571340D01*
X261200Y571340D01*
X261200Y582340D01*
X261200Y581790D02*
X288200Y581790D01*
X288200Y607740D02*
X261200Y607740D01*
X288200Y607740D02*
X288200Y596740D01*
X261200Y596740D01*
X261200Y607740D01*
X261200Y607190D02*
X288200Y607190D01*
X288200Y658540D02*
X261200Y658540D01*
X288200Y658540D02*
X288200Y647540D01*
X261200Y647540D01*
X261200Y658540D01*
X261200Y657990D02*
X288200Y657990D01*
X288200Y683940D02*
X261200Y683940D01*
X288200Y683940D02*
X288200Y672940D01*
X261200Y672940D01*
X261200Y683940D01*
X261200Y683390D02*
X288200Y683390D01*
X288200Y252140D02*
X261200Y252140D01*
X288200Y252140D02*
X288200Y241140D01*
X261200Y241140D01*
X261200Y252140D01*
X261200Y251590D02*
X288200Y251590D01*
X288200Y379140D02*
X261200Y379140D01*
X288200Y379140D02*
X288200Y368140D01*
X261200Y368140D01*
X261200Y379140D01*
X261200Y378590D02*
X288200Y378590D01*
X288200Y506140D02*
X261200Y506140D01*
X288200Y506140D02*
X288200Y495140D01*
X261200Y495140D01*
X261200Y506140D01*
X261200Y505590D02*
X288200Y505590D01*
X288200Y633140D02*
X261200Y633140D01*
X288200Y633140D02*
X288200Y622140D01*
X261200Y622140D01*
X261200Y633140D01*
X261200Y632590D02*
X288200Y632590D01*
X94400Y226740D02*
X67400Y226740D01*
X94400Y226740D02*
X94400Y215740D01*
X67400Y215740D01*
X67400Y226740D01*
X67400Y226190D02*
X94400Y226190D01*
X94400Y277540D02*
X67400Y277540D01*
X94400Y277540D02*
X94400Y266540D01*
X67400Y266540D01*
X67400Y277540D01*
X67400Y276990D02*
X94400Y276990D01*
X94400Y302940D02*
X67400Y302940D01*
X94400Y302940D02*
X94400Y291940D01*
X67400Y291940D01*
X67400Y302940D01*
X67400Y302390D02*
X94400Y302390D01*
X94400Y328340D02*
X67400Y328340D01*
X94400Y328340D02*
X94400Y317340D01*
X67400Y317340D01*
X67400Y328340D01*
X67400Y327790D02*
X94400Y327790D01*
X94400Y353740D02*
X67400Y353740D01*
X94400Y353740D02*
X94400Y342740D01*
X67400Y342740D01*
X67400Y353740D01*
X67400Y353190D02*
X94400Y353190D01*
X94400Y404540D02*
X67400Y404540D01*
X94400Y404540D02*
X94400Y393540D01*
X67400Y393540D01*
X67400Y404540D01*
X67400Y403990D02*
X94400Y403990D01*
X94400Y429940D02*
X67400Y429940D01*
X94400Y429940D02*
X94400Y418940D01*
X67400Y418940D01*
X67400Y429940D01*
X67400Y429390D02*
X94400Y429390D01*
X94400Y455340D02*
X67400Y455340D01*
X94400Y455340D02*
X94400Y444340D01*
X67400Y444340D01*
X67400Y455340D01*
X67400Y454790D02*
X94400Y454790D01*
X94400Y480740D02*
X67400Y480740D01*
X94400Y480740D02*
X94400Y469740D01*
X67400Y469740D01*
X67400Y480740D01*
X67400Y480190D02*
X94400Y480190D01*
X94400Y531540D02*
X67400Y531540D01*
X94400Y531540D02*
X94400Y520540D01*
X67400Y520540D01*
X67400Y531540D01*
X67400Y530990D02*
X94400Y530990D01*
X94400Y556940D02*
X67400Y556940D01*
X94400Y556940D02*
X94400Y545940D01*
X67400Y545940D01*
X67400Y556940D01*
X67400Y556390D02*
X94400Y556390D01*
X94400Y582340D02*
X67400Y582340D01*
X94400Y582340D02*
X94400Y571340D01*
X67400Y571340D01*
X67400Y582340D01*
X67400Y581790D02*
X94400Y581790D01*
X94400Y607740D02*
X67400Y607740D01*
X94400Y607740D02*
X94400Y596740D01*
X67400Y596740D01*
X67400Y607740D01*
X67400Y607190D02*
X94400Y607190D01*
X94400Y658540D02*
X67400Y658540D01*
X94400Y658540D02*
X94400Y647540D01*
X67400Y647540D01*
X67400Y658540D01*
X67400Y657990D02*
X94400Y657990D01*
X94400Y683940D02*
X67400Y683940D01*
X94400Y683940D02*
X94400Y672940D01*
X67400Y672940D01*
X67400Y683940D01*
X67400Y683390D02*
X94400Y683390D01*
X94400Y379140D02*
X67400Y379140D01*
X94400Y379140D02*
X94400Y368140D01*
X67400Y368140D01*
X67400Y379140D01*
X67400Y378590D02*
X94400Y378590D01*
X94400Y506140D02*
X67400Y506140D01*
X94400Y506140D02*
X94400Y495140D01*
X67400Y495140D01*
X67400Y506140D01*
X67400Y505590D02*
X94400Y505590D01*
X94400Y633140D02*
X67400Y633140D01*
X94400Y633140D02*
X94400Y622140D01*
X67400Y622140D01*
X67400Y633140D01*
X67400Y632590D02*
X94400Y632590D01*
X146900Y670640D02*
X146900Y697640D01*
X157900Y697640D01*
X157900Y670640D01*
X146900Y670640D01*
X146900Y681090D02*
X157900Y681090D01*
X157900Y691540D02*
X146900Y691540D01*
D14*
X397400Y565300D03*
X414400Y565300D03*
X367100Y538500D03*
X350100Y538500D03*
D15*
X352800Y408500D03*
X341200Y408500D03*
D16*
X365400Y214000D03*
X365400Y239400D03*
D17*
X353900Y594200D03*
X343900Y594200D03*
D18*
X338900Y287656D03*
X364300Y287656D03*
X389700Y287656D03*
D16*
X415100Y287656D03*
D18*
X440500Y287656D03*
X465900Y287656D03*
X491300Y287656D03*
X516700Y287656D03*
D19*
X379476Y246888D02*
X339852Y286512D01*
X379476Y246888D02*
X379476Y208788D01*
X348996Y178308D01*
X99060Y178308D01*
X82296Y195072D01*
X338900Y287656D02*
X339852Y286512D01*
X82296Y195072D02*
X80900Y195840D01*
X339852Y387096D02*
X339852Y408432D01*
X339852Y387096D02*
X300228Y347472D01*
X300228Y266700D01*
X280416Y246888D01*
X275844Y246888D01*
X339852Y408432D02*
X341200Y408500D01*
X275844Y246888D02*
X274700Y246640D01*
X326136Y240792D02*
X364236Y240792D01*
X326136Y240792D02*
X300228Y266700D01*
X364236Y240792D02*
X365400Y239400D01*
X281940Y374904D02*
X275844Y374904D01*
X281940Y374904D02*
X297180Y390144D01*
X297180Y483108D01*
X280416Y499872D01*
X275844Y499872D01*
X275844Y374904D02*
X274700Y373640D01*
X275844Y499872D02*
X274700Y500640D01*
X275844Y626364D02*
X281940Y626364D01*
X297180Y611124D01*
X297180Y516636D01*
X280416Y499872D01*
X275844Y626364D02*
X274700Y627640D01*
X274700Y500640D02*
X280416Y499872D01*
X274320Y246888D02*
X269748Y246888D01*
X245364Y271272D01*
X245364Y477012D01*
X268224Y499872D01*
X274320Y499872D01*
X274320Y246888D02*
X274700Y246640D01*
X274320Y499872D02*
X274700Y500640D01*
X397764Y565404D02*
X397764Y568452D01*
X405384Y576072D01*
X422148Y576072D01*
X440436Y557784D01*
X440436Y499872D01*
X434340Y493776D01*
X397764Y565404D02*
X397400Y565300D01*
X433300Y493700D02*
X434340Y493776D01*
X434340Y492252D02*
X434340Y481584D01*
X433300Y480700D01*
X434340Y492252D02*
X433300Y493700D01*
X348996Y537972D02*
X345948Y537972D01*
X333756Y525780D01*
X333756Y501396D01*
X341376Y493776D01*
X348996Y537972D02*
X350100Y538500D01*
X342300Y493700D02*
X341376Y493776D01*
X342900Y492252D02*
X342900Y481584D01*
X342900Y492252D02*
X342300Y493700D01*
X342900Y466344D02*
X342900Y455676D01*
X342300Y454700D01*
X342900Y466344D02*
X342300Y467700D01*
X339852Y452628D02*
X339852Y437388D01*
X339852Y452628D02*
X341376Y454152D01*
X339852Y437388D02*
X339050Y437200D01*
X341376Y454152D02*
X342300Y454700D01*
X420624Y481584D02*
X420624Y492252D01*
X420300Y493700D01*
X356616Y492252D02*
X356616Y481584D01*
X356616Y492252D02*
X355300Y493700D01*
X356616Y454152D02*
X367284Y454152D01*
X356616Y454152D02*
X355300Y454700D01*
X367284Y454152D02*
X368300Y454700D01*
X367284Y454152D02*
X387800Y474200D01*
X374904Y461772D02*
X381000Y455676D01*
X381300Y454700D01*
X374904Y461772D02*
X387800Y474200D01*
X382524Y454152D02*
X393192Y454152D01*
X394300Y454700D01*
X382524Y454152D02*
X381300Y454700D01*
X367284Y467868D02*
X356616Y467868D01*
X355300Y467700D01*
X367284Y467868D02*
X387800Y474200D01*
X368808Y467868D02*
X368300Y467700D01*
X368808Y467868D02*
X387800Y474200D01*
X381300Y467700D02*
X381000Y467868D01*
X387800Y474200D01*
X387096Y473964D02*
X393192Y467868D01*
X394300Y467700D01*
X387800Y474200D02*
X387096Y473964D01*
X368808Y481584D02*
X368808Y492252D01*
X368808Y481584D02*
X368300Y480700D01*
X381000Y481584D02*
X381300Y480700D01*
X381000Y481584D02*
X387800Y474200D01*
X388620Y475488D02*
X393192Y480060D01*
X394300Y480700D01*
X388620Y475488D02*
X387800Y474200D01*
X408432Y481584D02*
X408432Y492252D01*
X368808Y492252D02*
X368300Y493700D01*
X368808Y492252D02*
X387800Y474200D01*
X374904Y486156D02*
X381000Y492252D01*
X381300Y493700D01*
X374904Y486156D02*
X387800Y474200D01*
X400812Y486156D02*
X394716Y492252D01*
X394300Y493700D01*
X400812Y486156D02*
X387800Y474200D01*
X408432Y492252D02*
X407300Y493700D01*
X408432Y492252D02*
X387800Y474200D01*
X367284Y481584D02*
X356616Y481584D01*
X355300Y480700D01*
X367284Y481584D02*
X368300Y480700D01*
X408432Y481584D02*
X419100Y481584D01*
X420300Y480700D01*
X408432Y481584D02*
X407300Y480700D01*
X355092Y454152D02*
X342900Y454152D01*
X342300Y454700D01*
X355092Y454152D02*
X355300Y454700D01*
X355092Y481584D02*
X342900Y481584D01*
X342300Y480700D01*
X355092Y481584D02*
X355300Y480700D01*
X420624Y481584D02*
X432816Y481584D01*
X433300Y480700D01*
X420624Y481584D02*
X420300Y480700D01*
X434340Y466344D02*
X434340Y455676D01*
X433300Y454700D01*
X434340Y466344D02*
X433300Y467700D01*
X419100Y454152D02*
X408432Y454152D01*
X407300Y454700D01*
X419100Y454152D02*
X420300Y454700D01*
X419100Y467868D02*
X408432Y467868D01*
X407300Y467700D01*
X419100Y467868D02*
X420300Y467700D01*
X408432Y466344D02*
X408432Y455676D01*
X407300Y454700D01*
X408432Y466344D02*
X407300Y467700D01*
X420624Y454152D02*
X432816Y454152D01*
X433300Y454700D01*
X420624Y454152D02*
X420300Y454700D01*
X516636Y371856D02*
X516636Y288036D01*
X516636Y371856D02*
X434340Y454152D01*
X516636Y288036D02*
X516700Y287656D01*
X434340Y454152D02*
X433300Y454700D01*
X434340Y467868D02*
X434340Y480060D01*
X433300Y480700D01*
X434340Y467868D02*
X433300Y467700D01*
X126492Y627888D02*
X103632Y627888D01*
X82296Y627888D01*
X126492Y627888D02*
X176784Y678180D01*
X176784Y682752D01*
X82296Y627888D02*
X80900Y627640D01*
X176784Y682752D02*
X177800Y684140D01*
X80772Y246888D02*
X74676Y246888D01*
X59436Y262128D01*
X59436Y358140D01*
X74676Y373380D01*
X80772Y373380D01*
X80772Y246888D02*
X80900Y246640D01*
X80772Y373380D02*
X80900Y373640D01*
X80772Y499872D02*
X74676Y499872D01*
X59436Y484632D01*
X59436Y388620D01*
X74676Y373380D01*
X80772Y499872D02*
X80900Y500640D01*
X80900Y373640D02*
X74676Y373380D01*
X103632Y518160D02*
X103632Y627888D01*
X103632Y518160D02*
X86868Y501396D01*
X82296Y501396D01*
X80900Y500640D01*
X405384Y576072D02*
X405384Y583692D01*
X283464Y705612D01*
X193548Y705612D01*
X178308Y690372D01*
X178308Y684276D01*
X177800Y684140D01*
X355092Y592836D02*
X390144Y557784D01*
X403860Y557784D01*
X405384Y559308D01*
X405384Y571500D01*
X406908Y573024D01*
X420624Y573024D01*
X423672Y569976D01*
X423672Y560832D01*
X402336Y539496D01*
X377952Y539496D02*
X367284Y539496D01*
X377952Y539496D02*
X402336Y539496D01*
X355092Y592836D02*
X353900Y594200D01*
X367284Y539496D02*
X367100Y538500D01*
X339852Y522732D02*
X339852Y512064D01*
X339852Y522732D02*
X344424Y527304D01*
X339852Y512064D02*
X339050Y511200D01*
X352044Y408432D02*
X352044Y394716D01*
X306324Y348996D01*
X306324Y304800D01*
X361188Y249936D01*
X370332Y249936D01*
X376428Y243840D01*
X376428Y210312D01*
X347472Y181356D01*
X202692Y181356D01*
X86868Y297180D01*
X82296Y297180D01*
X352044Y408432D02*
X352800Y408500D01*
X82296Y297180D02*
X80900Y297440D01*
X80772Y298704D02*
X80772Y321564D01*
X80900Y322840D01*
X80772Y298704D02*
X80900Y297440D01*
X353568Y594360D02*
X353568Y630936D01*
X292608Y691896D01*
X257556Y691896D01*
X106680Y541020D01*
X106680Y342900D01*
X86868Y323088D01*
X82296Y323088D01*
X353568Y594360D02*
X353900Y594200D01*
X82296Y323088D02*
X80900Y322840D01*
D20*
X344424Y527304D03*
X377952Y539496D03*
D19*
X408432Y559308D02*
X413004Y563880D01*
X408432Y559308D02*
X408432Y557784D01*
X397764Y547116D01*
X361188Y547116D01*
X358140Y544068D01*
X358140Y531876D01*
X345948Y519684D01*
X345948Y512064D01*
X413004Y563880D02*
X414400Y565300D01*
X345948Y512064D02*
X345550Y511200D01*
X352044Y435864D02*
X352044Y429768D01*
X338328Y416052D01*
X335280Y416052D01*
X309372Y390144D01*
X309372Y361188D01*
X297180Y348996D01*
X297180Y289560D01*
X280416Y272796D01*
X275844Y272796D01*
X352044Y435864D02*
X352050Y437200D01*
X275844Y272796D02*
X274700Y272040D01*
X359664Y393192D02*
X359664Y435864D01*
X359664Y393192D02*
X312420Y345948D01*
X254508Y312420D02*
X251460Y312420D01*
X254508Y312420D02*
X268224Y298704D01*
X274320Y298704D01*
X359664Y435864D02*
X358550Y437200D01*
X274320Y298704D02*
X274700Y297440D01*
D20*
X312420Y345948D03*
X251460Y312420D03*
D19*
X352044Y512064D02*
X352044Y519684D01*
X358140Y525780D01*
X365760Y525780D01*
X251460Y413004D02*
X251460Y341376D01*
X269748Y323088D01*
X274320Y323088D01*
X352050Y511200D02*
X352044Y512064D01*
X274320Y323088D02*
X274700Y322840D01*
D20*
X365760Y525780D03*
X251460Y413004D03*
D19*
X342900Y545592D02*
X342900Y592836D01*
X342900Y545592D02*
X330708Y533400D01*
X330708Y431292D01*
X336804Y425196D01*
X341376Y425196D01*
X344424Y428244D01*
X344424Y435864D01*
X342900Y592836D02*
X343900Y594200D01*
X345550Y437200D02*
X344424Y435864D01*
X280416Y348996D02*
X275844Y348996D01*
X280416Y348996D02*
X306324Y374904D01*
X306324Y394716D01*
X336804Y425196D01*
X275844Y348996D02*
X274700Y348240D01*
X365760Y288036D02*
X365760Y435864D01*
X365050Y437200D01*
X365760Y288036D02*
X364300Y287656D01*
X371856Y304800D02*
X371856Y435864D01*
X371856Y304800D02*
X388620Y288036D01*
X371856Y435864D02*
X371550Y437200D01*
X388620Y288036D02*
X389700Y287656D01*
X379476Y323088D02*
X379476Y435864D01*
X379476Y323088D02*
X414528Y288036D01*
X379476Y435864D02*
X378050Y437200D01*
X414528Y288036D02*
X415100Y287656D01*
X385572Y342900D02*
X385572Y435864D01*
X385572Y342900D02*
X440436Y288036D01*
X385572Y435864D02*
X384550Y437200D01*
X440436Y288036D02*
X440500Y287656D01*
X391668Y361188D02*
X391668Y435864D01*
X391668Y361188D02*
X464820Y288036D01*
X391668Y435864D02*
X391050Y437200D01*
X464820Y288036D02*
X465900Y287656D01*
X397764Y381000D02*
X397764Y435864D01*
X397764Y381000D02*
X490728Y288036D01*
X397764Y435864D02*
X397550Y437200D01*
X490728Y288036D02*
X491300Y287656D01*
X364236Y213360D02*
X297180Y213360D01*
X280416Y196596D01*
X275844Y196596D01*
X364236Y213360D02*
X365400Y214000D01*
X275844Y196596D02*
X274700Y195840D01*
M02*
