G04 EAGLE Gerber RS-274X export*
G75*
%MOMM*%
%FSLAX34Y34*%
%LPD*%
%INSilkscreen Top*%
%IPPOS*%
%AMOC8*
5,1,8,0,0,1.08239X$1,22.5*%
G01*
G04 Define Apertures*
%ADD10C,0.127000*%
%ADD11C,0.254000*%
%ADD12C,0.200000*%
%ADD13C,0.508000*%
G36*
X172734Y151215D02*
X172361Y151223D01*
X172000Y151249D01*
X171652Y151292D01*
X171315Y151353D01*
X170990Y151430D01*
X170678Y151525D01*
X170377Y151637D01*
X170089Y151767D01*
X169814Y151912D01*
X169555Y152074D01*
X169313Y152251D01*
X169086Y152443D01*
X168875Y152651D01*
X168680Y152875D01*
X168500Y153114D01*
X168337Y153369D01*
X168191Y153638D01*
X168065Y153920D01*
X167958Y154214D01*
X167871Y154521D01*
X167803Y154841D01*
X167754Y155173D01*
X167725Y155517D01*
X167715Y155874D01*
X167715Y163731D01*
X169388Y163731D01*
X169388Y156015D01*
X169401Y155605D01*
X169442Y155220D01*
X169509Y154861D01*
X169603Y154528D01*
X169723Y154220D01*
X169871Y153937D01*
X170045Y153680D01*
X170246Y153448D01*
X170473Y153243D01*
X170723Y153065D01*
X170997Y152915D01*
X171295Y152791D01*
X171617Y152696D01*
X171962Y152627D01*
X172332Y152586D01*
X172725Y152572D01*
X173129Y152587D01*
X173511Y152629D01*
X173869Y152700D01*
X174204Y152799D01*
X174516Y152927D01*
X174805Y153082D01*
X175071Y153266D01*
X175313Y153479D01*
X175530Y153719D01*
X175717Y153984D01*
X175876Y154276D01*
X176006Y154595D01*
X176107Y154939D01*
X176179Y155309D01*
X176223Y155706D01*
X176237Y156128D01*
X176237Y163731D01*
X177901Y163731D01*
X177901Y156032D01*
X177891Y155664D01*
X177862Y155309D01*
X177812Y154967D01*
X177743Y154637D01*
X177653Y154321D01*
X177544Y154017D01*
X177415Y153726D01*
X177266Y153448D01*
X177099Y153185D01*
X176916Y152937D01*
X176716Y152706D01*
X176500Y152490D01*
X176267Y152291D01*
X176018Y152107D01*
X175753Y151940D01*
X175471Y151789D01*
X175174Y151654D01*
X174865Y151538D01*
X174542Y151439D01*
X174206Y151358D01*
X173858Y151296D01*
X173496Y151251D01*
X173121Y151224D01*
X172734Y151215D01*
G37*
G36*
X188400Y151390D02*
X180666Y151390D01*
X180666Y152730D01*
X183811Y152730D01*
X183811Y162224D01*
X181025Y160236D01*
X181025Y161725D01*
X183942Y163731D01*
X185396Y163731D01*
X185396Y152730D01*
X188400Y152730D01*
X188400Y151390D01*
G37*
G36*
X424460Y306706D02*
X422787Y306706D01*
X422787Y319047D01*
X427981Y319047D01*
X428485Y319032D01*
X428960Y318986D01*
X429406Y318910D01*
X429822Y318804D01*
X430210Y318667D01*
X430567Y318500D01*
X430896Y318302D01*
X431195Y318075D01*
X431462Y317819D01*
X431693Y317539D01*
X431889Y317233D01*
X432049Y316903D01*
X432174Y316548D01*
X432263Y316168D01*
X432316Y315763D01*
X432334Y315333D01*
X432316Y314906D01*
X432262Y314502D01*
X432173Y314120D01*
X432048Y313761D01*
X431887Y313424D01*
X431691Y313110D01*
X431459Y312818D01*
X431191Y312548D01*
X430892Y312306D01*
X430568Y312096D01*
X430218Y311918D01*
X429843Y311773D01*
X429442Y311660D01*
X429016Y311579D01*
X428564Y311531D01*
X428086Y311514D01*
X424460Y311514D01*
X424460Y306706D01*
G37*
%LPC*%
G36*
X427849Y312837D02*
X428189Y312847D01*
X428506Y312876D01*
X428802Y312924D01*
X429076Y312992D01*
X429328Y313079D01*
X429557Y313186D01*
X429765Y313311D01*
X429952Y313457D01*
X430116Y313621D01*
X430258Y313805D01*
X430379Y314009D01*
X430477Y314231D01*
X430554Y314473D01*
X430608Y314735D01*
X430641Y315015D01*
X430652Y315316D01*
X430641Y315605D01*
X430607Y315876D01*
X430551Y316128D01*
X430473Y316362D01*
X430372Y316577D01*
X430248Y316773D01*
X430102Y316950D01*
X429934Y317109D01*
X429743Y317249D01*
X429530Y317370D01*
X429294Y317473D01*
X429036Y317557D01*
X428756Y317623D01*
X428453Y317669D01*
X428127Y317697D01*
X427779Y317707D01*
X424460Y317707D01*
X424460Y312837D01*
X427849Y312837D01*
G37*
%LPD*%
G36*
X442358Y306706D02*
X434187Y306706D01*
X434187Y307818D01*
X434422Y308316D01*
X434682Y308783D01*
X434967Y309220D01*
X435277Y309627D01*
X435603Y310010D01*
X435937Y310374D01*
X436280Y310719D01*
X436630Y311046D01*
X437336Y311658D01*
X438036Y312224D01*
X438698Y312767D01*
X439293Y313310D01*
X439560Y313585D01*
X439800Y313866D01*
X440013Y314154D01*
X440199Y314449D01*
X440351Y314756D01*
X440459Y315084D01*
X440524Y315431D01*
X440545Y315797D01*
X440536Y316044D01*
X440508Y316277D01*
X440461Y316495D01*
X440396Y316699D01*
X440313Y316889D01*
X440210Y317065D01*
X440089Y317227D01*
X439950Y317374D01*
X439793Y317505D01*
X439623Y317619D01*
X439438Y317715D01*
X439238Y317794D01*
X439024Y317856D01*
X438795Y317899D01*
X438552Y317926D01*
X438294Y317934D01*
X438048Y317926D01*
X437813Y317900D01*
X437589Y317857D01*
X437376Y317798D01*
X437174Y317721D01*
X436983Y317627D01*
X436803Y317515D01*
X436635Y317387D01*
X436480Y317243D01*
X436342Y317086D01*
X436221Y316914D01*
X436117Y316729D01*
X436029Y316530D01*
X435959Y316317D01*
X435905Y316090D01*
X435868Y315850D01*
X434257Y315999D01*
X434315Y316359D01*
X434401Y316701D01*
X434515Y317024D01*
X434658Y317328D01*
X434830Y317613D01*
X435029Y317879D01*
X435257Y318126D01*
X435513Y318355D01*
X435793Y318560D01*
X436093Y318738D01*
X436412Y318889D01*
X436749Y319012D01*
X437107Y319108D01*
X437483Y319176D01*
X437879Y319217D01*
X438294Y319231D01*
X438747Y319217D01*
X439173Y319176D01*
X439572Y319107D01*
X439944Y319011D01*
X440289Y318887D01*
X440607Y318736D01*
X440898Y318557D01*
X441163Y318350D01*
X441398Y318119D01*
X441601Y317864D01*
X441774Y317586D01*
X441915Y317285D01*
X442025Y316961D01*
X442103Y316614D01*
X442150Y316243D01*
X442166Y315850D01*
X442145Y315491D01*
X442083Y315134D01*
X441981Y314778D01*
X441837Y314422D01*
X441653Y314068D01*
X441429Y313713D01*
X441165Y313358D01*
X440861Y313003D01*
X440463Y312600D01*
X439917Y312099D01*
X439223Y311501D01*
X438382Y310805D01*
X437904Y310403D01*
X437478Y310022D01*
X437103Y309661D01*
X436779Y309320D01*
X436502Y308993D01*
X436267Y308671D01*
X436073Y308356D01*
X435921Y308046D01*
X442358Y308046D01*
X442358Y306706D01*
G37*
G36*
X416350Y306531D02*
X415968Y306544D01*
X415605Y306581D01*
X415263Y306645D01*
X414941Y306733D01*
X414639Y306847D01*
X414356Y306987D01*
X414094Y307151D01*
X413851Y307341D01*
X413628Y307556D01*
X413426Y307797D01*
X413243Y308063D01*
X413080Y308354D01*
X412937Y308670D01*
X412814Y309012D01*
X412710Y309379D01*
X412627Y309771D01*
X414265Y310043D01*
X414311Y309796D01*
X414368Y309563D01*
X414439Y309344D01*
X414521Y309139D01*
X414616Y308948D01*
X414723Y308770D01*
X414843Y308607D01*
X414974Y308458D01*
X415117Y308324D01*
X415268Y308209D01*
X415428Y308111D01*
X415596Y308031D01*
X415774Y307968D01*
X415960Y307924D01*
X416155Y307897D01*
X416358Y307888D01*
X416580Y307898D01*
X416790Y307928D01*
X416987Y307976D01*
X417173Y308045D01*
X417346Y308133D01*
X417508Y308241D01*
X417657Y308368D01*
X417795Y308515D01*
X417918Y308680D01*
X418025Y308864D01*
X418115Y309066D01*
X418189Y309286D01*
X418246Y309525D01*
X418287Y309782D01*
X418312Y310056D01*
X418320Y310350D01*
X418320Y317680D01*
X415947Y317680D01*
X415947Y319047D01*
X419984Y319047D01*
X419984Y310385D01*
X419969Y309948D01*
X419924Y309535D01*
X419848Y309146D01*
X419741Y308781D01*
X419605Y308440D01*
X419437Y308122D01*
X419240Y307829D01*
X419012Y307560D01*
X418758Y307319D01*
X418481Y307110D01*
X418182Y306933D01*
X417860Y306788D01*
X417516Y306676D01*
X417150Y306595D01*
X416761Y306547D01*
X416350Y306531D01*
G37*
D10*
X442800Y500200D02*
X332800Y500200D01*
X332800Y448200D02*
X442800Y448200D01*
X442800Y500200D01*
X332800Y500200D02*
X332800Y479200D01*
X332940Y479198D01*
X333080Y479192D01*
X333220Y479182D01*
X333360Y479169D01*
X333499Y479151D01*
X333638Y479129D01*
X333775Y479104D01*
X333913Y479075D01*
X334049Y479042D01*
X334184Y479005D01*
X334318Y478964D01*
X334451Y478919D01*
X334583Y478871D01*
X334713Y478819D01*
X334842Y478764D01*
X334969Y478705D01*
X335095Y478642D01*
X335219Y478576D01*
X335340Y478507D01*
X335460Y478434D01*
X335578Y478357D01*
X335693Y478278D01*
X335807Y478195D01*
X335917Y478109D01*
X336026Y478020D01*
X336132Y477928D01*
X336235Y477833D01*
X336336Y477736D01*
X336433Y477635D01*
X336528Y477532D01*
X336620Y477426D01*
X336709Y477317D01*
X336795Y477207D01*
X336878Y477093D01*
X336957Y476978D01*
X337034Y476860D01*
X337107Y476740D01*
X337176Y476619D01*
X337242Y476495D01*
X337305Y476369D01*
X337364Y476242D01*
X337419Y476113D01*
X337471Y475983D01*
X337519Y475851D01*
X337564Y475718D01*
X337605Y475584D01*
X337642Y475449D01*
X337675Y475313D01*
X337704Y475175D01*
X337729Y475038D01*
X337751Y474899D01*
X337769Y474760D01*
X337782Y474620D01*
X337792Y474480D01*
X337798Y474340D01*
X337800Y474200D01*
X337798Y474060D01*
X337792Y473920D01*
X337782Y473780D01*
X337769Y473640D01*
X337751Y473501D01*
X337729Y473362D01*
X337704Y473225D01*
X337675Y473087D01*
X337642Y472951D01*
X337605Y472816D01*
X337564Y472682D01*
X337519Y472549D01*
X337471Y472417D01*
X337419Y472287D01*
X337364Y472158D01*
X337305Y472031D01*
X337242Y471905D01*
X337176Y471781D01*
X337107Y471660D01*
X337034Y471540D01*
X336957Y471422D01*
X336878Y471307D01*
X336795Y471193D01*
X336709Y471083D01*
X336620Y470974D01*
X336528Y470868D01*
X336433Y470765D01*
X336336Y470664D01*
X336235Y470567D01*
X336132Y470472D01*
X336026Y470380D01*
X335917Y470291D01*
X335807Y470205D01*
X335693Y470122D01*
X335578Y470043D01*
X335460Y469966D01*
X335340Y469893D01*
X335219Y469824D01*
X335095Y469758D01*
X334969Y469695D01*
X334842Y469636D01*
X334713Y469581D01*
X334583Y469529D01*
X334451Y469481D01*
X334318Y469436D01*
X334184Y469395D01*
X334049Y469358D01*
X333913Y469325D01*
X333775Y469296D01*
X333638Y469271D01*
X333499Y469249D01*
X333360Y469231D01*
X333220Y469218D01*
X333080Y469208D01*
X332940Y469202D01*
X332800Y469200D01*
X332800Y448200D01*
D11*
X329380Y446260D03*
D10*
X381247Y425813D02*
X381247Y422328D01*
X381249Y422257D01*
X381255Y422185D01*
X381264Y422115D01*
X381277Y422045D01*
X381294Y421975D01*
X381315Y421907D01*
X381339Y421840D01*
X381367Y421774D01*
X381398Y421710D01*
X381433Y421647D01*
X381471Y421587D01*
X381512Y421528D01*
X381556Y421472D01*
X381603Y421418D01*
X381652Y421367D01*
X381705Y421319D01*
X381760Y421273D01*
X381817Y421231D01*
X381877Y421191D01*
X381938Y421155D01*
X382002Y421122D01*
X382067Y421093D01*
X382133Y421067D01*
X382201Y421044D01*
X382270Y421025D01*
X382340Y421010D01*
X382410Y420999D01*
X382481Y420991D01*
X382552Y420987D01*
X382624Y420987D01*
X382695Y420991D01*
X382766Y420999D01*
X382836Y421010D01*
X382906Y421025D01*
X382975Y421044D01*
X383043Y421067D01*
X383109Y421093D01*
X383174Y421122D01*
X383238Y421155D01*
X383299Y421191D01*
X383359Y421231D01*
X383416Y421273D01*
X383471Y421319D01*
X383524Y421367D01*
X383573Y421418D01*
X383620Y421472D01*
X383664Y421528D01*
X383705Y421587D01*
X383743Y421647D01*
X383778Y421710D01*
X383809Y421774D01*
X383837Y421840D01*
X383861Y421907D01*
X383882Y421975D01*
X383899Y422045D01*
X383912Y422115D01*
X383921Y422185D01*
X383927Y422257D01*
X383929Y422328D01*
X383929Y425813D01*
X387891Y425813D02*
X387891Y420987D01*
X387891Y423400D02*
X387221Y423802D01*
X387174Y423832D01*
X387130Y423866D01*
X387088Y423902D01*
X387049Y423941D01*
X387012Y423982D01*
X386979Y424027D01*
X386949Y424073D01*
X386921Y424121D01*
X386898Y424171D01*
X386878Y424223D01*
X386861Y424276D01*
X386848Y424329D01*
X386839Y424384D01*
X386834Y424439D01*
X386832Y424495D01*
X386834Y424550D01*
X386840Y424605D01*
X386850Y424659D01*
X386864Y424713D01*
X386881Y424766D01*
X386902Y424817D01*
X386927Y424867D01*
X386954Y424915D01*
X386985Y424960D01*
X387020Y425004D01*
X387057Y425045D01*
X387096Y425084D01*
X387139Y425119D01*
X387184Y425152D01*
X387230Y425182D01*
X387279Y425208D01*
X387330Y425230D01*
X387382Y425250D01*
X387435Y425265D01*
X387489Y425277D01*
X387489Y425276D02*
X387578Y425291D01*
X387668Y425301D01*
X387758Y425308D01*
X387848Y425311D01*
X387938Y425310D01*
X388028Y425305D01*
X388117Y425297D01*
X388207Y425284D01*
X388295Y425268D01*
X388383Y425248D01*
X388470Y425225D01*
X388556Y425198D01*
X388640Y425167D01*
X388724Y425132D01*
X388805Y425094D01*
X388886Y425053D01*
X388964Y425008D01*
X387891Y423400D02*
X388562Y422998D01*
X388609Y422968D01*
X388653Y422934D01*
X388695Y422898D01*
X388734Y422859D01*
X388771Y422818D01*
X388804Y422773D01*
X388834Y422727D01*
X388862Y422679D01*
X388885Y422629D01*
X388905Y422577D01*
X388922Y422524D01*
X388935Y422471D01*
X388944Y422416D01*
X388949Y422361D01*
X388951Y422305D01*
X388949Y422250D01*
X388943Y422195D01*
X388933Y422141D01*
X388919Y422087D01*
X388902Y422034D01*
X388881Y421983D01*
X388856Y421933D01*
X388829Y421885D01*
X388798Y421839D01*
X388763Y421796D01*
X388726Y421755D01*
X388687Y421716D01*
X388644Y421681D01*
X388599Y421648D01*
X388552Y421618D01*
X388504Y421592D01*
X388453Y421570D01*
X388401Y421550D01*
X388348Y421535D01*
X388294Y421523D01*
X388294Y421524D02*
X388205Y421509D01*
X388115Y421499D01*
X388025Y421492D01*
X387935Y421489D01*
X387845Y421490D01*
X387755Y421495D01*
X387666Y421503D01*
X387576Y421516D01*
X387488Y421532D01*
X387400Y421552D01*
X387313Y421575D01*
X387227Y421602D01*
X387143Y421633D01*
X387059Y421668D01*
X386978Y421706D01*
X386898Y421747D01*
X386819Y421792D01*
X391672Y424741D02*
X393012Y425813D01*
X393012Y420987D01*
X391672Y420987D02*
X394353Y420987D01*
D12*
X283800Y184640D02*
X283800Y181140D01*
X283800Y689640D02*
X283800Y693140D01*
X71800Y184640D02*
X71800Y181140D01*
X71800Y689640D02*
X71800Y693140D01*
X214400Y693140D02*
X283800Y693140D01*
X141200Y693140D02*
X71800Y693140D01*
X218800Y181140D02*
X283800Y181140D01*
X218800Y181140D02*
X218800Y168140D01*
X136800Y168140D01*
X136800Y181140D01*
X71800Y181140D01*
D13*
X299700Y195840D03*
D10*
X401848Y573555D02*
X401848Y578381D01*
X403189Y578381D01*
X403260Y578379D01*
X403332Y578373D01*
X403402Y578364D01*
X403472Y578351D01*
X403542Y578334D01*
X403610Y578313D01*
X403677Y578289D01*
X403743Y578261D01*
X403807Y578230D01*
X403870Y578195D01*
X403930Y578157D01*
X403989Y578116D01*
X404045Y578072D01*
X404099Y578025D01*
X404150Y577976D01*
X404198Y577923D01*
X404244Y577868D01*
X404286Y577811D01*
X404326Y577751D01*
X404362Y577690D01*
X404395Y577626D01*
X404424Y577561D01*
X404450Y577495D01*
X404473Y577427D01*
X404492Y577358D01*
X404507Y577288D01*
X404518Y577218D01*
X404526Y577147D01*
X404530Y577076D01*
X404530Y577004D01*
X404526Y576933D01*
X404518Y576862D01*
X404507Y576792D01*
X404492Y576722D01*
X404473Y576653D01*
X404450Y576585D01*
X404424Y576519D01*
X404395Y576454D01*
X404362Y576390D01*
X404326Y576329D01*
X404286Y576269D01*
X404244Y576212D01*
X404198Y576157D01*
X404150Y576104D01*
X404099Y576055D01*
X404045Y576008D01*
X403989Y575964D01*
X403930Y575923D01*
X403870Y575885D01*
X403807Y575850D01*
X403743Y575819D01*
X403677Y575791D01*
X403610Y575767D01*
X403542Y575746D01*
X403472Y575729D01*
X403402Y575716D01*
X403332Y575707D01*
X403260Y575701D01*
X403189Y575699D01*
X403189Y575700D02*
X401848Y575700D01*
X403457Y575700D02*
X404529Y573555D01*
X408745Y578381D02*
X408813Y578379D01*
X408880Y578373D01*
X408947Y578364D01*
X409014Y578351D01*
X409079Y578334D01*
X409144Y578313D01*
X409207Y578289D01*
X409269Y578261D01*
X409329Y578230D01*
X409387Y578196D01*
X409443Y578158D01*
X409498Y578118D01*
X409549Y578074D01*
X409598Y578027D01*
X409645Y577978D01*
X409689Y577927D01*
X409729Y577872D01*
X409767Y577816D01*
X409801Y577758D01*
X409832Y577698D01*
X409860Y577636D01*
X409884Y577573D01*
X409905Y577508D01*
X409922Y577443D01*
X409935Y577376D01*
X409944Y577309D01*
X409950Y577242D01*
X409952Y577174D01*
X408745Y578381D02*
X408667Y578379D01*
X408589Y578373D01*
X408512Y578363D01*
X408435Y578350D01*
X408359Y578332D01*
X408284Y578311D01*
X408210Y578286D01*
X408138Y578257D01*
X408067Y578225D01*
X407998Y578189D01*
X407930Y578150D01*
X407865Y578107D01*
X407802Y578061D01*
X407741Y578012D01*
X407683Y577960D01*
X407628Y577905D01*
X407575Y577848D01*
X407526Y577788D01*
X407479Y577725D01*
X407436Y577661D01*
X407396Y577594D01*
X407359Y577525D01*
X407326Y577454D01*
X407296Y577382D01*
X407270Y577309D01*
X409550Y576236D02*
X409599Y576285D01*
X409646Y576337D01*
X409689Y576392D01*
X409730Y576449D01*
X409768Y576508D01*
X409802Y576569D01*
X409833Y576632D01*
X409861Y576696D01*
X409885Y576762D01*
X409905Y576828D01*
X409922Y576896D01*
X409935Y576965D01*
X409944Y577034D01*
X409950Y577104D01*
X409952Y577174D01*
X409550Y576236D02*
X407271Y573555D01*
X409952Y573555D01*
X357104Y525419D02*
X356032Y525419D01*
X355967Y525421D01*
X355903Y525427D01*
X355839Y525437D01*
X355775Y525450D01*
X355713Y525468D01*
X355652Y525489D01*
X355592Y525513D01*
X355534Y525542D01*
X355477Y525574D01*
X355423Y525609D01*
X355371Y525647D01*
X355321Y525689D01*
X355274Y525733D01*
X355230Y525780D01*
X355188Y525830D01*
X355150Y525882D01*
X355115Y525936D01*
X355083Y525993D01*
X355054Y526051D01*
X355030Y526111D01*
X355009Y526172D01*
X354991Y526234D01*
X354978Y526298D01*
X354968Y526362D01*
X354962Y526426D01*
X354960Y526491D01*
X354959Y526491D02*
X354959Y529173D01*
X354960Y529173D02*
X354962Y529238D01*
X354968Y529302D01*
X354978Y529366D01*
X354991Y529430D01*
X355009Y529492D01*
X355030Y529553D01*
X355054Y529613D01*
X355083Y529671D01*
X355115Y529728D01*
X355150Y529782D01*
X355188Y529834D01*
X355230Y529884D01*
X355274Y529931D01*
X355321Y529975D01*
X355371Y530017D01*
X355423Y530055D01*
X355477Y530090D01*
X355534Y530122D01*
X355592Y530151D01*
X355652Y530175D01*
X355713Y530196D01*
X355775Y530214D01*
X355839Y530227D01*
X355903Y530237D01*
X355967Y530243D01*
X356032Y530245D01*
X357104Y530245D01*
X359560Y529173D02*
X360900Y530245D01*
X360900Y525419D01*
X359560Y525419D02*
X362241Y525419D01*
X345504Y395419D02*
X344432Y395419D01*
X344367Y395421D01*
X344303Y395427D01*
X344239Y395437D01*
X344175Y395450D01*
X344113Y395468D01*
X344052Y395489D01*
X343992Y395513D01*
X343934Y395542D01*
X343877Y395574D01*
X343823Y395609D01*
X343771Y395647D01*
X343721Y395689D01*
X343674Y395733D01*
X343630Y395780D01*
X343588Y395830D01*
X343550Y395882D01*
X343515Y395936D01*
X343483Y395993D01*
X343454Y396051D01*
X343430Y396111D01*
X343409Y396172D01*
X343391Y396234D01*
X343378Y396298D01*
X343368Y396362D01*
X343362Y396426D01*
X343360Y396491D01*
X343359Y396491D02*
X343359Y399173D01*
X343360Y399173D02*
X343362Y399238D01*
X343368Y399302D01*
X343378Y399366D01*
X343391Y399430D01*
X343409Y399492D01*
X343430Y399553D01*
X343454Y399613D01*
X343483Y399671D01*
X343515Y399728D01*
X343550Y399782D01*
X343588Y399834D01*
X343630Y399884D01*
X343674Y399931D01*
X343721Y399975D01*
X343771Y400017D01*
X343823Y400055D01*
X343877Y400090D01*
X343934Y400122D01*
X343992Y400151D01*
X344052Y400175D01*
X344113Y400196D01*
X344175Y400214D01*
X344239Y400227D01*
X344303Y400237D01*
X344367Y400243D01*
X344432Y400245D01*
X345504Y400245D01*
X349434Y400245D02*
X349502Y400243D01*
X349569Y400237D01*
X349636Y400228D01*
X349703Y400215D01*
X349768Y400198D01*
X349833Y400177D01*
X349896Y400153D01*
X349958Y400125D01*
X350018Y400094D01*
X350076Y400060D01*
X350132Y400022D01*
X350187Y399982D01*
X350238Y399938D01*
X350287Y399891D01*
X350334Y399842D01*
X350378Y399791D01*
X350418Y399736D01*
X350456Y399680D01*
X350490Y399622D01*
X350521Y399562D01*
X350549Y399500D01*
X350573Y399437D01*
X350594Y399372D01*
X350611Y399307D01*
X350624Y399240D01*
X350633Y399173D01*
X350639Y399106D01*
X350641Y399038D01*
X349434Y400245D02*
X349356Y400243D01*
X349278Y400237D01*
X349201Y400227D01*
X349124Y400214D01*
X349048Y400196D01*
X348973Y400175D01*
X348899Y400150D01*
X348827Y400121D01*
X348756Y400089D01*
X348687Y400053D01*
X348619Y400014D01*
X348554Y399971D01*
X348491Y399925D01*
X348430Y399876D01*
X348372Y399824D01*
X348317Y399769D01*
X348264Y399712D01*
X348215Y399652D01*
X348168Y399589D01*
X348125Y399525D01*
X348085Y399458D01*
X348048Y399389D01*
X348015Y399318D01*
X347985Y399246D01*
X347959Y399173D01*
X350239Y398100D02*
X350288Y398149D01*
X350335Y398201D01*
X350378Y398256D01*
X350419Y398313D01*
X350457Y398372D01*
X350491Y398433D01*
X350522Y398496D01*
X350550Y398560D01*
X350574Y398626D01*
X350594Y398692D01*
X350611Y398760D01*
X350624Y398829D01*
X350633Y398898D01*
X350639Y398968D01*
X350641Y399038D01*
X350239Y398100D02*
X347960Y395419D01*
X350641Y395419D01*
X344848Y583119D02*
X344848Y587945D01*
X346189Y587945D01*
X346260Y587943D01*
X346332Y587937D01*
X346402Y587928D01*
X346472Y587915D01*
X346542Y587898D01*
X346610Y587877D01*
X346677Y587853D01*
X346743Y587825D01*
X346807Y587794D01*
X346870Y587759D01*
X346930Y587721D01*
X346989Y587680D01*
X347045Y587636D01*
X347099Y587589D01*
X347150Y587540D01*
X347198Y587487D01*
X347244Y587432D01*
X347286Y587375D01*
X347326Y587315D01*
X347362Y587254D01*
X347395Y587190D01*
X347424Y587125D01*
X347450Y587059D01*
X347473Y586991D01*
X347492Y586922D01*
X347507Y586852D01*
X347518Y586782D01*
X347526Y586711D01*
X347530Y586640D01*
X347530Y586568D01*
X347526Y586497D01*
X347518Y586426D01*
X347507Y586356D01*
X347492Y586286D01*
X347473Y586217D01*
X347450Y586149D01*
X347424Y586083D01*
X347395Y586018D01*
X347362Y585954D01*
X347326Y585893D01*
X347286Y585833D01*
X347244Y585776D01*
X347198Y585721D01*
X347150Y585668D01*
X347099Y585619D01*
X347045Y585572D01*
X346989Y585528D01*
X346930Y585487D01*
X346870Y585449D01*
X346807Y585414D01*
X346743Y585383D01*
X346677Y585355D01*
X346610Y585331D01*
X346542Y585310D01*
X346472Y585293D01*
X346402Y585280D01*
X346332Y585271D01*
X346260Y585265D01*
X346189Y585263D01*
X346189Y585264D02*
X344848Y585264D01*
X346457Y585264D02*
X347529Y583119D01*
X350271Y586873D02*
X351611Y587945D01*
X351611Y583119D01*
X350271Y583119D02*
X352952Y583119D01*
D12*
X325200Y301356D02*
X530400Y301356D01*
X530400Y273956D01*
X325200Y273956D01*
X325200Y301356D01*
M02*
