G04 EAGLE Gerber RS-274X export*
G75*
%MOMM*%
%FSLAX34Y34*%
%LPD*%
%INSilkscreen Bottom*%
%IPPOS*%
%AMOC8*
5,1,8,0,0,1.08239X$1,22.5*%
G01*
G04 Define Apertures*
%ADD10C,0.200000*%
G36*
X396791Y221687D02*
X384450Y221687D01*
X384450Y223360D01*
X389258Y223360D01*
X389258Y226986D01*
X389275Y227464D01*
X389323Y227916D01*
X389404Y228342D01*
X389517Y228743D01*
X389662Y229118D01*
X389840Y229468D01*
X390050Y229792D01*
X390292Y230091D01*
X390562Y230359D01*
X390854Y230591D01*
X391168Y230787D01*
X391505Y230948D01*
X391864Y231073D01*
X392246Y231162D01*
X392650Y231216D01*
X393077Y231234D01*
X393507Y231216D01*
X393912Y231163D01*
X394292Y231074D01*
X394647Y230949D01*
X394977Y230789D01*
X395283Y230593D01*
X395563Y230362D01*
X395819Y230095D01*
X396046Y229796D01*
X396244Y229467D01*
X396411Y229110D01*
X396548Y228722D01*
X396654Y228306D01*
X396730Y227860D01*
X396776Y227385D01*
X396791Y226881D01*
X396791Y221687D01*
G37*
%LPC*%
G36*
X395451Y223360D02*
X395451Y226679D01*
X395441Y227027D01*
X395413Y227353D01*
X395367Y227656D01*
X395301Y227936D01*
X395217Y228194D01*
X395114Y228430D01*
X394993Y228643D01*
X394853Y228834D01*
X394694Y229002D01*
X394517Y229148D01*
X394321Y229272D01*
X394106Y229373D01*
X393872Y229451D01*
X393620Y229507D01*
X393349Y229541D01*
X393060Y229552D01*
X392759Y229541D01*
X392479Y229508D01*
X392217Y229454D01*
X391975Y229377D01*
X391753Y229279D01*
X391549Y229158D01*
X391365Y229016D01*
X391201Y228852D01*
X391055Y228665D01*
X390930Y228457D01*
X390823Y228228D01*
X390736Y227976D01*
X390668Y227702D01*
X390620Y227406D01*
X390591Y227089D01*
X390581Y226749D01*
X390581Y223360D01*
X395451Y223360D01*
G37*
%LPD*%
G36*
X385790Y233551D02*
X384450Y233551D01*
X384450Y241285D01*
X385790Y241285D01*
X385790Y238280D01*
X396791Y238280D01*
X396791Y236826D01*
X394785Y233910D01*
X393296Y233910D01*
X395284Y236695D01*
X385790Y236695D01*
X385790Y233551D01*
G37*
G36*
X387515Y211527D02*
X387123Y211610D01*
X386756Y211714D01*
X386414Y211837D01*
X386098Y211980D01*
X385807Y212143D01*
X385541Y212326D01*
X385300Y212528D01*
X385085Y212751D01*
X384895Y212994D01*
X384731Y213256D01*
X384591Y213539D01*
X384477Y213841D01*
X384389Y214163D01*
X384325Y214505D01*
X384288Y214868D01*
X384275Y215250D01*
X384291Y215661D01*
X384339Y216050D01*
X384420Y216416D01*
X384532Y216760D01*
X384677Y217082D01*
X384854Y217381D01*
X385063Y217658D01*
X385304Y217912D01*
X385573Y218140D01*
X385866Y218337D01*
X386184Y218505D01*
X386525Y218641D01*
X386890Y218748D01*
X387279Y218824D01*
X387692Y218869D01*
X388129Y218884D01*
X396791Y218884D01*
X396791Y214847D01*
X395424Y214847D01*
X395424Y217220D01*
X388094Y217220D01*
X387800Y217212D01*
X387526Y217187D01*
X387269Y217146D01*
X387030Y217089D01*
X386810Y217015D01*
X386608Y216925D01*
X386424Y216818D01*
X386259Y216695D01*
X386112Y216557D01*
X385985Y216408D01*
X385877Y216246D01*
X385789Y216073D01*
X385720Y215887D01*
X385672Y215690D01*
X385642Y215480D01*
X385632Y215258D01*
X385641Y215055D01*
X385668Y214860D01*
X385712Y214674D01*
X385775Y214496D01*
X385855Y214328D01*
X385953Y214168D01*
X386068Y214017D01*
X386202Y213874D01*
X386351Y213743D01*
X386514Y213623D01*
X386692Y213516D01*
X386883Y213421D01*
X387088Y213339D01*
X387307Y213268D01*
X387540Y213211D01*
X387787Y213165D01*
X387515Y211527D01*
G37*
D10*
X379100Y200300D02*
X379100Y253100D01*
X351700Y253100D01*
X351700Y200300D01*
X379100Y200300D01*
M02*
