M48
;GenerationSoftware,Autodesk,EAGLE,9.7.0*%
;CreationDate,2026-07-04T21:12:57Z*%
FMAT,2
ICI,OFF
METRIC,TZ,000.000
T2C0.981
T1C1.016
%
G90
M71
T1
X-12130Y6260
X-12130Y3720
X-12130Y1180
X-12130Y-1360
X-12130Y-3900
X-12130Y-6440
X-12130Y-8980
X-12130Y-11520
T2
X0Y18730
X0Y21270
X16220Y9365
X18420Y10635
X16220Y-9365
X18420Y-10635
X0Y-18730
X0Y-21270
X-16220Y-9365
X-18420Y-10635
X-16220Y9365
X-18420Y10635
M30